<svg id="splitsvg" version="1.1" xmlns="http://www.w3.org/2000/svg" xmlns:xlink="http://www.w3.org/1999/xlink" width="1380" height="122"><g id="svgg"><path id="path0" d="M0.000 61.333 L 0.000 122.667 200.000 122.667 L 400.000 122.667 400.000 61.333 L 400.000 0.000 200.000 0.000 L 0.000 0.000 0.000 61.333 M393.167 61.833 L 393.167 115.833 200.250 115.833 L 7.333 115.833 7.333 61.833 L 7.333 7.833 200.250 7.833 L 393.167 7.833 393.167 61.833 M48.122 34.833 C 47.953 35.031,47.833 35.445,47.833 35.835 C 47.833 36.315,47.764 36.500,47.583 36.500 C 47.428 36.500,47.333 36.657,47.333 36.917 C 47.333 37.176,47.239 37.333,47.083 37.333 C 46.917 37.333,46.833 37.500,46.833 37.833 C 46.833 38.167,46.750 38.333,46.583 38.333 C 46.417 38.333,46.333 38.500,46.333 38.833 C 46.333 39.167,46.250 39.333,46.083 39.333 C 45.928 39.333,45.833 39.491,45.833 39.750 C 45.833 39.979,45.763 40.167,45.677 40.167 C 45.591 40.167,45.470 40.504,45.408 40.917 C 45.346 41.329,45.229 41.667,45.148 41.667 C 45.066 41.667,45.000 41.854,45.000 42.083 C 45.000 42.343,44.906 42.500,44.750 42.500 C 44.583 42.500,44.500 42.667,44.500 43.000 C 44.500 43.333,44.417 43.500,44.250 43.500 C 44.083 43.500,44.000 43.667,44.000 44.000 C 44.000 44.333,43.917 44.500,43.750 44.500 C 43.569 44.500,43.500 44.685,43.500 45.167 C 43.500 45.648,43.431 45.833,43.250 45.833 C 43.083 45.833,43.000 46.000,43.000 46.333 C 43.000 46.608,42.925 46.833,42.833 46.833 C 42.742 46.833,42.667 47.021,42.667 47.250 C 42.667 47.509,42.572 47.667,42.417 47.667 C 42.250 47.667,42.167 47.833,42.167 48.167 C 42.167 48.500,42.083 48.667,41.917 48.667 C 41.750 48.667,41.667 48.833,41.667 49.167 C 41.667 49.500,41.583 49.667,41.417 49.667 C 41.236 49.667,41.167 49.852,41.167 50.333 C 41.167 50.815,41.097 51.000,40.917 51.000 C 40.750 51.000,40.667 51.167,40.667 51.500 C 40.667 51.833,40.583 52.000,40.417 52.000 C 40.261 52.000,40.167 52.157,40.167 52.417 C 40.167 52.646,40.092 52.833,40.000 52.833 C 39.908 52.833,39.833 53.058,39.833 53.333 C 39.833 53.667,39.750 53.833,39.583 53.833 C 39.403 53.833,39.333 54.019,39.333 54.500 C 39.333 54.981,39.264 55.167,39.083 55.167 C 38.917 55.167,38.833 55.333,38.833 55.667 C 38.833 56.000,38.750 56.167,38.583 56.167 C 38.417 56.167,38.333 56.333,38.333 56.667 C 38.333 57.000,38.250 57.167,38.083 57.167 C 37.928 57.167,37.833 57.324,37.833 57.583 C 37.833 57.813,37.764 58.000,37.680 58.000 C 37.596 58.000,37.477 58.225,37.417 58.500 C 37.356 58.775,37.238 59.000,37.153 59.000 C 37.069 59.000,37.000 59.300,37.000 59.667 C 37.000 60.148,36.931 60.333,36.750 60.333 C 36.583 60.333,36.500 60.500,36.500 60.833 C 36.500 61.167,36.417 61.333,36.250 61.333 C 36.083 61.333,36.000 61.500,36.000 61.833 C 36.000 62.167,35.917 62.333,35.750 62.333 C 35.598 62.333,35.500 62.488,35.500 62.730 C 35.500 62.948,35.387 63.219,35.250 63.333 C 35.112 63.447,35.000 63.794,35.000 64.104 C 35.000 64.413,34.925 64.667,34.833 64.667 C 34.742 64.667,34.667 64.854,34.667 65.083 C 34.667 65.343,34.572 65.500,34.417 65.500 C 34.250 65.500,34.167 65.667,34.167 66.000 C 34.167 66.333,34.083 66.500,33.917 66.500 C 33.750 66.500,33.667 66.667,33.667 67.000 C 33.667 67.333,33.583 67.500,33.417 67.500 C 33.260 67.500,33.167 67.658,33.167 67.922 C 33.167 68.154,33.054 68.387,32.917 68.440 C 32.754 68.502,32.667 68.762,32.667 69.184 C 32.667 69.650,32.596 69.833,32.417 69.833 C 32.261 69.833,32.167 69.991,32.167 70.250 C 32.167 70.479,32.092 70.667,32.000 70.667 C 31.908 70.667,31.833 70.892,31.833 71.167 C 31.833 71.500,31.750 71.667,31.583 71.667 C 31.417 71.667,31.333 71.833,31.333 72.167 C 31.333 72.500,31.250 72.667,31.083 72.667 C 30.903 72.667,30.833 72.852,30.833 73.333 C 30.833 73.815,30.764 74.000,30.583 74.000 C 30.417 74.000,30.333 74.167,30.333 74.500 C 30.333 74.833,30.250 75.000,30.083 75.000 C 29.946 75.000,29.833 75.144,29.833 75.320 C 29.833 75.662,29.332 76.713,29.125 76.806 C 29.056 76.836,29.000 77.080,29.000 77.347 C 29.000 77.668,28.915 77.833,28.750 77.833 C 28.569 77.833,28.500 78.019,28.500 78.500 C 28.500 78.981,28.431 79.167,28.250 79.167 C 28.083 79.167,28.000 79.333,28.000 79.667 C 28.000 80.000,27.917 80.167,27.750 80.167 C 27.594 80.167,27.500 80.325,27.500 80.589 C 27.500 80.821,27.387 81.054,27.250 81.106 C 27.113 81.159,27.000 81.382,27.000 81.601 C 27.000 81.821,26.925 82.000,26.833 82.000 C 26.742 82.000,26.667 82.337,26.667 82.750 C 26.667 83.306,26.602 83.500,26.417 83.500 C 26.261 83.500,26.167 83.657,26.167 83.917 C 26.167 84.176,26.072 84.333,25.917 84.333 C 25.750 84.333,25.667 84.500,25.667 84.833 C 25.667 85.167,25.583 85.333,25.417 85.333 C 25.250 85.333,25.167 85.500,25.167 85.833 C 25.167 86.167,25.083 86.333,24.917 86.333 C 24.763 86.333,24.667 86.489,24.667 86.736 C 24.667 86.958,24.582 87.167,24.479 87.201 C 24.376 87.236,24.254 87.655,24.208 88.132 L 24.124 89.000 29.812 89.000 L 35.500 89.000 35.500 88.583 C 35.500 88.324,35.594 88.167,35.750 88.167 C 35.917 88.167,36.000 88.000,36.000 87.667 C 36.000 87.333,36.083 87.167,36.250 87.167 C 36.429 87.167,36.500 86.983,36.500 86.518 C 36.500 86.095,36.587 85.836,36.750 85.773 C 36.887 85.720,37.000 85.487,37.000 85.255 C 37.000 85.023,37.075 84.833,37.167 84.833 C 37.258 84.833,37.333 84.608,37.333 84.333 C 37.333 84.000,37.417 83.833,37.583 83.833 C 37.764 83.833,37.833 83.648,37.833 83.167 C 37.833 82.685,37.903 82.500,38.083 82.500 C 38.250 82.500,38.333 82.333,38.333 82.000 C 38.333 81.667,38.417 81.500,38.583 81.500 C 38.740 81.500,38.833 81.342,38.833 81.078 C 38.833 80.846,38.946 80.613,39.083 80.560 C 39.246 80.498,39.333 80.238,39.333 79.816 C 39.333 79.350,39.404 79.167,39.583 79.167 C 39.737 79.167,39.833 79.010,39.833 78.760 C 39.833 78.536,39.908 78.307,40.000 78.250 C 40.092 78.193,40.167 77.964,40.167 77.740 C 40.167 77.490,40.263 77.333,40.417 77.333 C 40.554 77.333,40.667 77.221,40.667 77.083 C 40.667 76.863,42.241 76.833,53.833 76.833 L 67.000 76.833 67.000 77.422 C 67.000 77.791,67.093 78.046,67.250 78.106 C 67.393 78.161,67.500 78.410,67.500 78.684 C 67.500 79.002,67.585 79.167,67.750 79.167 C 67.917 79.167,68.000 79.333,68.000 79.667 C 68.000 80.000,68.083 80.167,68.250 80.167 C 68.431 80.167,68.500 80.352,68.500 80.833 C 68.500 81.315,68.569 81.500,68.750 81.500 C 68.917 81.500,69.000 81.667,69.000 82.000 C 69.000 82.275,69.075 82.500,69.167 82.500 C 69.258 82.500,69.333 82.645,69.333 82.821 C 69.333 82.998,69.446 83.255,69.583 83.393 C 69.721 83.530,69.833 83.876,69.833 84.160 C 69.833 84.466,69.935 84.716,70.083 84.773 C 70.221 84.826,70.333 85.051,70.333 85.273 C 70.333 85.495,70.446 85.720,70.583 85.773 C 70.721 85.826,70.833 86.048,70.833 86.268 C 70.833 86.511,70.931 86.667,71.083 86.667 C 71.250 86.667,71.333 86.833,71.333 87.167 C 71.333 87.500,71.417 87.667,71.583 87.667 C 71.764 87.667,71.833 87.852,71.833 88.333 L 71.833 89.000 77.667 89.000 L 83.500 89.000 83.500 88.333 C 83.500 87.852,83.431 87.667,83.250 87.667 C 83.083 87.667,83.000 87.500,83.000 87.167 C 83.000 86.892,82.925 86.667,82.833 86.667 C 82.742 86.667,82.667 86.479,82.667 86.250 C 82.667 85.991,82.572 85.833,82.417 85.833 C 82.250 85.833,82.167 85.667,82.167 85.333 C 82.167 85.000,82.083 84.833,81.917 84.833 C 81.736 84.833,81.667 84.648,81.667 84.167 C 81.667 83.685,81.597 83.500,81.417 83.500 C 81.250 83.500,81.167 83.333,81.167 83.000 C 81.167 82.667,81.083 82.500,80.917 82.500 C 80.750 82.500,80.667 82.333,80.667 82.000 C 80.667 81.667,80.583 81.500,80.417 81.500 C 80.261 81.500,80.167 81.343,80.167 81.083 C 80.167 80.854,80.092 80.667,80.000 80.667 C 79.908 80.667,79.833 80.442,79.833 80.167 C 79.833 79.833,79.750 79.667,79.583 79.667 C 79.403 79.667,79.333 79.481,79.333 79.000 C 79.333 78.519,79.264 78.333,79.083 78.333 C 78.917 78.333,78.833 78.167,78.833 77.833 C 78.833 77.500,78.750 77.333,78.583 77.333 C 78.417 77.333,78.333 77.167,78.333 76.833 C 78.333 76.500,78.250 76.333,78.083 76.333 C 77.928 76.333,77.833 76.176,77.833 75.917 C 77.833 75.657,77.739 75.500,77.583 75.500 C 77.417 75.500,77.333 75.333,77.333 75.000 C 77.333 74.725,77.258 74.500,77.167 74.500 C 77.075 74.500,77.000 74.235,77.000 73.911 C 77.000 73.542,76.907 73.287,76.750 73.227 C 76.607 73.172,76.500 72.924,76.500 72.649 C 76.500 72.331,76.415 72.167,76.250 72.167 C 76.083 72.167,76.000 72.000,76.000 71.667 C 76.000 71.333,75.917 71.167,75.750 71.167 C 75.594 71.167,75.500 71.009,75.500 70.750 C 75.500 70.491,75.406 70.333,75.250 70.333 C 75.065 70.333,75.000 70.139,75.000 69.583 C 75.000 69.171,74.925 68.833,74.833 68.833 C 74.742 68.833,74.667 68.681,74.667 68.495 C 74.667 68.309,74.554 68.113,74.417 68.060 C 74.274 68.006,74.167 67.757,74.167 67.482 C 74.167 67.165,74.081 67.000,73.917 67.000 C 73.750 67.000,73.667 66.833,73.667 66.500 C 73.667 66.167,73.583 66.000,73.417 66.000 C 73.261 66.000,73.167 65.843,73.167 65.583 C 73.167 65.324,73.072 65.167,72.917 65.167 C 72.731 65.167,72.667 64.972,72.667 64.417 C 72.667 63.861,72.602 63.667,72.417 63.667 C 72.261 63.667,72.167 63.509,72.167 63.250 C 72.167 63.021,72.092 62.833,72.000 62.833 C 71.908 62.833,71.833 62.643,71.833 62.411 C 71.833 62.179,71.721 61.946,71.583 61.894 C 71.441 61.839,71.333 61.590,71.333 61.316 C 71.333 60.998,71.248 60.833,71.083 60.833 C 70.903 60.833,70.833 60.648,70.833 60.167 C 70.833 59.685,70.764 59.500,70.583 59.500 C 70.417 59.500,70.333 59.333,70.333 59.000 C 70.333 58.667,70.250 58.500,70.083 58.500 C 69.931 58.500,69.833 58.345,69.833 58.101 C 69.833 57.882,69.721 57.659,69.583 57.606 C 69.446 57.554,69.333 57.321,69.333 57.089 C 69.333 56.857,69.258 56.667,69.167 56.667 C 69.075 56.667,69.000 56.442,69.000 56.167 C 69.000 55.833,68.917 55.667,68.750 55.667 C 68.569 55.667,68.500 55.481,68.500 55.000 C 68.500 54.519,68.431 54.333,68.250 54.333 C 68.083 54.333,68.000 54.167,68.000 53.833 C 68.000 53.500,67.917 53.333,67.750 53.333 C 67.594 53.333,67.500 53.175,67.500 52.911 C 67.500 52.679,67.387 52.446,67.250 52.394 C 67.112 52.341,67.000 52.118,67.000 51.899 C 67.000 51.679,66.925 51.500,66.833 51.500 C 66.742 51.500,66.667 51.310,66.667 51.078 C 66.667 50.846,66.554 50.613,66.417 50.560 C 66.262 50.501,66.167 50.247,66.167 49.894 C 66.167 49.540,66.072 49.286,65.917 49.227 C 65.774 49.172,65.667 48.924,65.667 48.649 C 65.667 48.331,65.581 48.167,65.417 48.167 C 65.260 48.167,65.167 48.009,65.167 47.745 C 65.167 47.513,65.054 47.280,64.917 47.227 C 64.779 47.174,64.667 46.952,64.667 46.732 C 64.667 46.489,64.569 46.333,64.417 46.333 C 64.247 46.333,64.167 46.164,64.167 45.806 C 64.167 45.237,63.688 44.000,63.468 44.000 C 63.394 44.000,63.333 43.810,63.333 43.578 C 63.333 43.346,63.221 43.113,63.083 43.060 C 62.946 43.008,62.833 42.783,62.833 42.560 C 62.833 42.338,62.721 42.113,62.583 42.060 C 62.446 42.008,62.333 41.785,62.333 41.566 C 62.333 41.322,62.236 41.167,62.083 41.167 C 61.902 41.167,61.833 40.981,61.833 40.495 C 61.833 40.051,61.748 39.790,61.583 39.727 C 61.446 39.674,61.333 39.452,61.333 39.232 C 61.333 39.013,61.258 38.833,61.167 38.833 C 61.075 38.833,61.000 38.643,61.000 38.411 C 61.000 38.179,60.887 37.946,60.750 37.894 C 60.612 37.841,60.500 37.616,60.500 37.394 C 60.500 37.171,60.387 36.946,60.250 36.894 C 60.112 36.841,60.000 36.618,60.000 36.399 C 60.000 36.162,59.902 36.000,59.760 36.000 C 59.596 36.000,59.503 35.774,59.468 35.292 L 59.417 34.583 53.914 34.539 C 48.567 34.497,48.403 34.505,48.122 34.833 M89.167 61.750 L 89.167 89.000 94.833 89.000 L 100.500 89.000 100.500 82.075 L 100.500 75.151 100.917 74.765 C 101.146 74.552,101.333 74.293,101.333 74.189 C 101.333 74.085,101.446 74.000,101.583 74.000 C 101.721 74.000,101.833 73.887,101.833 73.750 C 101.833 73.612,101.946 73.500,102.083 73.500 C 102.221 73.500,102.333 73.387,102.333 73.250 C 102.333 73.112,102.414 73.000,102.513 73.000 C 102.747 73.000,104.167 71.581,104.167 71.346 C 104.167 71.248,104.279 71.167,104.417 71.167 C 104.554 71.167,104.667 71.054,104.667 70.917 C 104.667 70.779,104.779 70.667,104.917 70.667 C 105.054 70.667,105.167 70.554,105.167 70.417 C 105.167 70.279,105.247 70.167,105.346 70.167 C 105.579 70.167,106.500 69.246,106.500 69.013 C 106.500 68.914,106.612 68.833,106.750 68.833 C 106.888 68.833,107.000 68.721,107.000 68.583 C 107.000 68.446,107.112 68.333,107.250 68.333 C 107.388 68.333,107.500 68.221,107.500 68.083 C 107.500 67.946,107.604 67.833,107.732 67.833 C 107.860 67.833,108.009 67.716,108.065 67.572 C 108.261 67.062,109.180 67.584,109.418 68.341 C 109.489 68.566,109.723 68.915,109.940 69.117 C 110.156 69.319,110.333 69.563,110.333 69.659 C 110.333 69.755,110.446 69.833,110.583 69.833 C 110.721 69.833,110.833 69.946,110.833 70.083 C 110.833 70.221,110.946 70.333,111.083 70.333 C 111.221 70.333,111.333 70.408,111.333 70.500 C 111.333 70.592,111.446 70.667,111.583 70.667 C 111.721 70.667,111.833 70.779,111.833 70.917 C 111.833 71.054,111.900 71.167,111.982 71.167 C 112.064 71.167,112.180 71.364,112.240 71.605 C 112.358 72.071,113.187 73.000,113.487 73.000 C 113.586 73.000,113.667 73.112,113.667 73.250 C 113.667 73.387,113.779 73.500,113.917 73.500 C 114.054 73.500,114.167 73.612,114.167 73.750 C 114.167 73.887,114.279 74.000,114.417 74.000 C 114.573 74.000,114.667 74.158,114.667 74.422 C 114.667 74.833,115.498 75.833,115.839 75.833 C 115.928 75.833,116.000 75.946,116.000 76.083 C 116.000 76.221,116.112 76.333,116.250 76.333 C 116.388 76.333,116.500 76.446,116.500 76.583 C 116.500 76.721,116.612 76.833,116.750 76.833 C 116.902 76.833,117.000 76.988,117.000 77.227 C 117.000 77.452,117.178 77.754,117.417 77.933 C 117.646 78.105,117.833 78.340,117.833 78.456 C 117.833 78.572,117.946 78.667,118.083 78.667 C 118.221 78.667,118.333 78.779,118.333 78.917 C 118.333 79.054,118.446 79.167,118.583 79.167 C 118.721 79.167,118.833 79.279,118.833 79.417 C 118.833 79.554,118.946 79.667,119.083 79.667 C 119.221 79.667,119.333 79.779,119.333 79.917 C 119.333 80.054,119.446 80.167,119.583 80.167 C 119.728 80.167,119.833 80.317,119.833 80.523 C 119.833 80.718,120.021 81.052,120.250 81.265 C 120.479 81.477,120.667 81.729,120.667 81.825 C 120.667 81.921,120.779 82.000,120.917 82.000 C 121.054 82.000,121.167 82.112,121.167 82.250 C 121.167 82.387,121.279 82.500,121.417 82.500 C 121.554 82.500,121.667 82.612,121.667 82.750 C 121.667 82.887,121.779 83.000,121.917 83.000 C 122.072 83.000,122.167 83.157,122.167 83.417 C 122.167 83.676,122.261 83.833,122.417 83.833 C 122.554 83.833,122.667 83.918,122.667 84.023 C 122.667 84.127,122.854 84.386,123.083 84.598 C 123.313 84.810,123.500 85.063,123.500 85.159 C 123.500 85.255,123.612 85.333,123.750 85.333 C 123.888 85.333,124.000 85.446,124.000 85.583 C 124.000 85.721,124.112 85.833,124.250 85.833 C 124.406 85.833,124.500 85.991,124.500 86.250 C 124.500 86.509,124.594 86.667,124.750 86.667 C 124.888 86.667,125.000 86.779,125.000 86.917 C 125.000 87.054,125.112 87.167,125.250 87.167 C 125.388 87.167,125.500 87.248,125.500 87.346 C 125.500 87.445,125.832 87.858,126.237 88.263 L 126.974 89.000 133.237 89.000 L 139.500 89.000 139.500 88.333 C 139.500 87.852,139.431 87.667,139.250 87.667 C 139.112 87.667,139.000 87.583,139.000 87.480 C 139.000 87.378,138.700 87.003,138.333 86.647 C 137.967 86.292,137.667 85.850,137.667 85.667 C 137.667 85.482,137.556 85.333,137.417 85.333 C 137.279 85.333,137.167 85.221,137.167 85.083 C 137.167 84.946,137.054 84.833,136.917 84.833 C 136.779 84.833,136.667 84.721,136.667 84.583 C 136.667 84.446,136.554 84.333,136.417 84.333 C 136.279 84.333,136.167 84.221,136.167 84.083 C 136.167 83.946,136.093 83.833,136.003 83.833 C 135.913 83.833,135.793 83.646,135.735 83.417 C 135.678 83.188,135.564 83.000,135.482 83.000 C 135.400 83.000,135.333 82.887,135.333 82.750 C 135.333 82.612,135.221 82.500,135.083 82.500 C 134.946 82.500,134.833 82.387,134.833 82.250 C 134.833 82.112,134.721 82.000,134.583 82.000 C 134.446 82.000,134.333 81.887,134.333 81.750 C 134.333 81.612,134.221 81.500,134.083 81.500 C 133.946 81.500,133.833 81.387,133.833 81.250 C 133.833 81.112,133.721 81.000,133.583 81.000 C 133.439 81.000,133.333 80.849,133.333 80.644 C 133.333 80.448,133.146 80.114,132.917 79.902 C 132.688 79.690,132.500 79.437,132.500 79.341 C 132.500 79.245,132.387 79.167,132.250 79.167 C 132.112 79.167,132.000 79.054,132.000 78.917 C 132.000 78.779,131.887 78.667,131.750 78.667 C 131.594 78.667,131.500 78.509,131.500 78.250 C 131.500 77.991,131.406 77.833,131.250 77.833 C 131.112 77.833,131.000 77.748,131.000 77.644 C 131.000 77.540,130.813 77.281,130.583 77.069 C 130.354 76.856,130.167 76.604,130.167 76.508 C 130.167 76.412,130.054 76.333,129.917 76.333 C 129.761 76.333,129.667 76.176,129.667 75.917 C 129.667 75.657,129.572 75.500,129.417 75.500 C 129.279 75.500,129.167 75.387,129.167 75.250 C 129.167 75.112,129.054 75.000,128.917 75.000 C 128.779 75.000,128.667 74.887,128.667 74.750 C 128.667 74.612,128.554 74.500,128.417 74.500 C 128.279 74.500,128.167 74.387,128.167 74.250 C 128.167 74.112,128.100 74.000,128.018 74.000 C 127.936 74.000,127.822 73.813,127.765 73.583 C 127.707 73.354,127.587 73.167,127.497 73.167 C 127.407 73.167,127.333 73.054,127.333 72.917 C 127.333 72.779,127.221 72.667,127.083 72.667 C 126.946 72.667,126.833 72.554,126.833 72.417 C 126.833 72.279,126.721 72.167,126.583 72.167 C 126.446 72.167,126.333 72.054,126.333 71.917 C 126.333 71.779,126.221 71.667,126.083 71.667 C 125.943 71.667,125.833 71.518,125.833 71.325 C 125.833 71.138,125.646 70.810,125.417 70.598 C 125.188 70.386,125.000 70.127,125.000 70.023 C 125.000 69.918,124.888 69.833,124.750 69.833 C 124.612 69.833,124.500 69.721,124.500 69.583 C 124.500 69.446,124.388 69.333,124.250 69.333 C 124.101 69.333,124.000 69.180,124.000 68.954 C 124.000 68.582,123.491 68.000,123.165 68.000 C 123.074 68.000,123.000 67.887,123.000 67.750 C 123.000 67.612,122.925 67.500,122.833 67.500 C 122.742 67.500,122.667 67.387,122.667 67.250 C 122.667 67.112,122.554 67.000,122.417 67.000 C 122.273 67.000,122.167 66.849,122.167 66.645 C 122.167 66.301,121.135 65.167,120.821 65.167 C 120.736 65.167,120.667 65.054,120.667 64.917 C 120.667 64.779,120.554 64.667,120.417 64.667 C 120.279 64.667,120.167 64.554,120.167 64.417 C 120.167 64.279,120.100 64.167,120.018 64.167 C 119.936 64.167,119.827 63.998,119.774 63.792 C 119.665 63.362,118.773 62.333,118.509 62.333 C 118.413 62.333,118.333 62.221,118.333 62.083 C 118.333 61.946,118.221 61.833,118.083 61.833 C 117.927 61.833,117.833 61.675,117.833 61.411 C 117.833 61.179,117.721 60.946,117.583 60.894 C 117.446 60.841,117.333 60.725,117.333 60.637 C 117.333 60.421,116.901 60.000,116.679 60.000 C 116.580 60.000,116.500 59.887,116.500 59.750 C 116.500 59.612,116.388 59.500,116.250 59.500 C 116.083 59.500,116.000 59.333,116.000 59.000 C 116.000 58.667,116.083 58.500,116.250 58.500 C 116.388 58.500,116.500 58.387,116.500 58.250 C 116.500 58.112,116.612 58.000,116.750 58.000 C 116.888 58.000,117.000 57.920,117.000 57.821 C 117.000 57.591,117.424 57.167,117.655 57.167 C 117.753 57.167,117.833 57.054,117.833 56.917 C 117.833 56.779,117.946 56.667,118.083 56.667 C 118.221 56.667,118.333 56.554,118.333 56.417 C 118.333 56.279,118.446 56.167,118.583 56.167 C 118.721 56.167,118.833 56.054,118.833 55.917 C 118.833 55.779,118.946 55.667,119.083 55.667 C 119.221 55.667,119.333 55.591,119.333 55.499 C 119.333 55.406,119.858 54.817,120.500 54.189 C 121.227 53.478,121.667 52.913,121.667 52.691 C 121.667 52.494,121.747 52.333,121.846 52.333 C 122.079 52.333,123.000 51.413,123.000 51.179 C 123.000 51.081,123.112 51.000,123.250 51.000 C 123.388 51.000,123.500 50.887,123.500 50.750 C 123.500 50.612,123.612 50.500,123.750 50.500 C 123.888 50.500,124.000 50.387,124.000 50.250 C 124.000 50.112,124.081 50.000,124.179 50.000 C 124.413 50.000,125.333 49.079,125.333 48.846 C 125.333 48.747,125.446 48.667,125.583 48.667 C 125.721 48.667,125.833 48.554,125.833 48.417 C 125.833 48.279,125.946 48.167,126.083 48.167 C 126.221 48.167,126.333 48.054,126.333 47.917 C 126.333 47.779,126.446 47.667,126.583 47.667 C 126.721 47.667,126.833 47.554,126.833 47.417 C 126.833 47.279,126.946 47.167,127.083 47.167 C 127.221 47.167,127.333 47.089,127.333 46.994 C 127.333 46.779,128.288 45.833,128.506 45.833 C 128.594 45.833,128.667 45.608,128.667 45.333 C 128.667 45.000,128.750 44.833,128.917 44.833 C 129.054 44.833,129.167 44.721,129.167 44.583 C 129.167 44.446,129.279 44.333,129.417 44.333 C 129.554 44.333,129.667 44.258,129.667 44.167 C 129.667 44.075,129.779 44.000,129.917 44.000 C 130.054 44.000,130.167 43.887,130.167 43.750 C 130.167 43.612,130.279 43.500,130.417 43.500 C 130.554 43.500,130.667 43.387,130.667 43.250 C 130.667 43.112,130.742 43.000,130.833 43.000 C 130.925 43.000,131.000 42.887,131.000 42.750 C 131.000 42.612,131.112 42.500,131.250 42.500 C 131.387 42.500,131.500 42.387,131.500 42.250 C 131.500 42.112,131.581 42.000,131.680 42.000 C 131.914 42.000,133.333 40.581,133.333 40.346 C 133.333 40.248,133.446 40.167,133.583 40.167 C 133.721 40.167,133.833 40.054,133.833 39.917 C 133.833 39.779,133.946 39.667,134.083 39.667 C 134.221 39.667,134.333 39.554,134.333 39.417 C 134.333 39.279,134.406 39.167,134.494 39.167 C 134.712 39.167,135.667 38.221,135.667 38.006 C 135.667 37.911,135.779 37.833,135.917 37.833 C 136.083 37.833,136.167 37.667,136.167 37.333 C 136.167 37.000,136.250 36.833,136.417 36.833 C 136.554 36.833,136.667 36.758,136.667 36.667 C 136.667 36.575,136.779 36.500,136.917 36.500 C 137.054 36.500,137.167 36.387,137.167 36.250 C 137.167 36.112,137.279 36.000,137.417 36.000 C 137.554 36.000,137.667 35.887,137.667 35.750 C 137.667 35.612,137.779 35.500,137.917 35.500 C 138.083 35.500,138.167 35.333,138.167 35.000 L 138.167 34.500 131.911 34.500 C 126.505 34.500,125.643 34.534,125.560 34.750 C 125.508 34.887,125.360 35.000,125.232 35.000 C 125.104 35.000,125.000 35.112,125.000 35.250 C 125.000 35.387,124.888 35.500,124.750 35.500 C 124.612 35.500,124.500 35.612,124.500 35.750 C 124.500 35.887,124.388 36.000,124.250 36.000 C 124.094 36.000,124.000 36.157,124.000 36.417 C 124.000 36.676,123.906 36.833,123.750 36.833 C 123.612 36.833,123.500 36.946,123.500 37.083 C 123.500 37.221,123.388 37.333,123.250 37.333 C 123.112 37.333,123.000 37.446,123.000 37.583 C 123.000 37.721,122.925 37.833,122.833 37.833 C 122.742 37.833,122.667 37.946,122.667 38.083 C 122.667 38.221,122.554 38.333,122.417 38.333 C 122.279 38.333,122.167 38.446,122.167 38.583 C 122.167 38.721,122.082 38.833,121.977 38.833 C 121.873 38.833,121.614 39.021,121.402 39.250 C 121.190 39.479,120.937 39.667,120.841 39.667 C 120.745 39.667,120.667 39.745,120.667 39.841 C 120.667 39.937,120.479 40.190,120.250 40.402 C 120.021 40.614,119.833 40.873,119.833 40.977 C 119.833 41.082,119.721 41.167,119.583 41.167 C 119.446 41.167,119.333 41.279,119.333 41.417 C 119.333 41.554,119.221 41.667,119.083 41.667 C 118.946 41.667,118.833 41.742,118.833 41.833 C 118.833 41.925,118.721 42.000,118.583 42.000 C 118.446 42.000,118.333 42.112,118.333 42.250 C 118.333 42.387,118.221 42.500,118.083 42.500 C 117.946 42.500,117.833 42.612,117.833 42.750 C 117.833 42.887,117.758 43.000,117.667 43.000 C 117.575 43.000,117.500 43.112,117.500 43.250 C 117.500 43.387,117.388 43.500,117.250 43.500 C 117.112 43.500,117.000 43.612,117.000 43.750 C 117.000 43.887,116.888 44.000,116.750 44.000 C 116.612 44.000,116.500 44.112,116.500 44.250 C 116.500 44.387,116.419 44.500,116.320 44.500 C 116.086 44.500,114.667 45.919,114.667 46.154 C 114.667 46.252,114.554 46.333,114.417 46.333 C 114.279 46.333,114.167 46.446,114.167 46.583 C 114.167 46.721,114.054 46.833,113.917 46.833 C 113.779 46.833,113.667 46.946,113.667 47.083 C 113.667 47.221,113.586 47.333,113.487 47.333 C 113.254 47.333,112.333 48.254,112.333 48.487 C 112.333 48.586,112.221 48.667,112.083 48.667 C 111.917 48.667,111.833 48.833,111.833 49.167 C 111.833 49.500,111.750 49.667,111.583 49.667 C 111.446 49.667,111.333 49.742,111.333 49.833 C 111.333 49.925,111.221 50.000,111.083 50.000 C 110.946 50.000,110.833 50.112,110.833 50.250 C 110.833 50.387,110.721 50.500,110.583 50.500 C 110.446 50.500,110.333 50.612,110.333 50.750 C 110.333 50.887,110.221 51.000,110.083 51.000 C 109.946 51.000,109.833 51.072,109.833 51.161 C 109.833 51.379,108.888 52.333,108.672 52.333 C 108.578 52.333,108.500 52.446,108.500 52.583 C 108.500 52.721,108.388 52.833,108.250 52.833 C 108.112 52.833,108.000 52.946,108.000 53.083 C 108.000 53.221,107.888 53.333,107.750 53.333 C 107.612 53.333,107.500 53.446,107.500 53.583 C 107.500 53.721,107.388 53.833,107.250 53.833 C 107.112 53.833,107.000 53.946,107.000 54.083 C 107.000 54.221,106.925 54.333,106.833 54.333 C 106.742 54.333,106.667 54.446,106.667 54.583 C 106.667 54.721,106.554 54.833,106.417 54.833 C 106.279 54.833,106.167 54.908,106.167 55.000 C 106.167 55.092,106.054 55.167,105.917 55.167 C 105.779 55.167,105.667 55.279,105.667 55.417 C 105.667 55.554,105.554 55.667,105.417 55.667 C 105.279 55.667,105.167 55.779,105.167 55.917 C 105.167 56.054,105.054 56.167,104.917 56.167 C 104.779 56.167,104.667 56.240,104.667 56.329 C 104.667 56.540,103.207 58.000,102.996 58.000 C 102.906 58.000,102.833 58.112,102.833 58.250 C 102.833 58.387,102.721 58.500,102.583 58.500 C 102.446 58.500,102.333 58.579,102.333 58.675 C 102.333 58.771,102.146 59.023,101.917 59.235 C 101.688 59.448,101.500 59.707,101.500 59.811 C 101.500 59.915,101.396 60.000,101.268 60.000 C 101.140 60.000,100.992 60.112,100.940 60.250 C 100.550 61.266,100.500 59.820,100.500 47.500 L 100.500 34.500 94.833 34.500 L 89.167 34.500 89.167 61.750 M166.833 61.750 L 166.833 89.000 172.250 89.000 L 177.667 89.000 177.667 82.000 C 177.667 75.889,177.698 75.000,177.917 75.000 C 178.054 75.000,178.167 74.887,178.167 74.750 C 178.167 74.612,178.279 74.500,178.417 74.500 C 178.554 74.500,178.667 74.387,178.667 74.250 C 178.667 74.112,178.742 74.000,178.833 74.000 C 178.925 74.000,179.000 73.887,179.000 73.750 C 179.000 73.612,179.112 73.500,179.250 73.500 C 179.387 73.500,179.500 73.387,179.500 73.250 C 179.500 73.112,179.612 73.000,179.750 73.000 C 179.887 73.000,180.000 72.925,180.000 72.833 C 180.000 72.742,180.112 72.667,180.250 72.667 C 180.387 72.667,180.500 72.554,180.500 72.417 C 180.500 72.279,180.612 72.167,180.750 72.167 C 180.887 72.167,181.000 72.054,181.000 71.917 C 181.000 71.779,181.075 71.667,181.167 71.667 C 181.258 71.667,181.333 71.554,181.333 71.417 C 181.333 71.279,181.446 71.167,181.583 71.167 C 181.721 71.167,181.833 71.054,181.833 70.917 C 181.833 70.779,181.946 70.667,182.083 70.667 C 182.221 70.667,182.333 70.592,182.333 70.500 C 182.333 70.408,182.446 70.333,182.583 70.333 C 182.721 70.333,182.833 70.258,182.833 70.166 C 182.833 70.075,183.133 69.708,183.500 69.353 C 183.867 68.997,184.167 68.622,184.167 68.520 C 184.167 68.417,184.279 68.333,184.417 68.333 C 184.554 68.333,184.667 68.221,184.667 68.083 C 184.667 67.946,184.747 67.833,184.845 67.833 C 184.943 67.833,185.136 67.721,185.274 67.583 C 185.588 67.269,185.745 67.269,186.060 67.583 C 186.197 67.721,186.390 67.833,186.488 67.833 C 186.586 67.833,186.667 67.946,186.667 68.083 C 186.667 68.221,186.742 68.333,186.833 68.333 C 186.925 68.333,187.000 68.446,187.000 68.583 C 187.000 68.721,187.112 68.833,187.250 68.833 C 187.399 68.833,187.500 68.987,187.500 69.213 C 187.500 69.585,188.009 70.167,188.335 70.167 C 188.426 70.167,188.500 70.279,188.500 70.417 C 188.500 70.554,188.612 70.667,188.750 70.667 C 188.887 70.667,189.000 70.752,189.000 70.856 C 189.000 70.960,189.188 71.219,189.417 71.431 C 189.646 71.644,189.833 71.896,189.833 71.992 C 189.833 72.088,189.946 72.167,190.083 72.167 C 190.239 72.167,190.333 72.324,190.333 72.583 C 190.333 72.843,190.428 73.000,190.583 73.000 C 190.721 73.000,190.833 73.112,190.833 73.250 C 190.833 73.387,190.946 73.500,191.083 73.500 C 191.221 73.500,191.333 73.612,191.333 73.750 C 191.333 73.887,191.446 74.000,191.583 74.000 C 191.721 74.000,191.833 74.085,191.833 74.189 C 191.833 74.293,192.021 74.552,192.250 74.765 C 192.479 74.977,192.667 75.269,192.667 75.414 C 192.667 75.559,192.779 75.720,192.917 75.773 C 193.054 75.826,193.167 75.973,193.167 76.101 C 193.167 76.229,193.279 76.333,193.417 76.333 C 193.554 76.333,193.667 76.446,193.667 76.583 C 193.667 76.721,193.779 76.833,193.917 76.833 C 194.054 76.833,194.167 76.946,194.167 77.083 C 194.167 77.221,194.279 77.333,194.417 77.333 C 194.554 77.333,194.667 77.446,194.667 77.583 C 194.667 77.721,194.742 77.833,194.833 77.833 C 194.925 77.833,195.000 77.968,195.000 78.133 C 195.000 78.298,195.222 78.616,195.493 78.841 C 195.764 79.066,195.989 79.344,195.993 79.458 C 195.997 79.573,196.112 79.667,196.250 79.667 C 196.387 79.667,196.500 79.779,196.500 79.917 C 196.500 80.054,196.612 80.167,196.750 80.167 C 196.887 80.167,197.000 80.247,197.000 80.345 C 197.000 80.576,197.424 81.000,197.655 81.000 C 197.753 81.000,197.833 81.190,197.833 81.422 C 197.833 81.654,197.946 81.887,198.083 81.940 C 198.221 81.992,198.333 82.140,198.333 82.268 C 198.333 82.396,198.446 82.500,198.583 82.500 C 198.721 82.500,198.833 82.612,198.833 82.750 C 198.833 82.887,198.946 83.000,199.083 83.000 C 199.221 83.000,199.333 83.112,199.333 83.250 C 199.333 83.387,199.414 83.500,199.512 83.500 C 199.773 83.500,200.104 83.874,200.251 84.335 C 200.393 84.783,201.705 86.167,201.987 86.167 C 202.086 86.167,202.167 86.279,202.167 86.417 C 202.167 86.554,202.279 86.667,202.417 86.667 C 202.554 86.667,202.667 86.779,202.667 86.917 C 202.667 87.054,202.742 87.167,202.833 87.167 C 202.925 87.167,203.000 87.311,203.000 87.488 C 203.000 87.665,203.253 88.077,203.561 88.405 L 204.123 89.000 210.395 89.000 L 216.667 89.000 216.667 88.333 C 216.667 87.852,216.597 87.667,216.417 87.667 C 216.279 87.667,216.167 87.582,216.167 87.477 C 216.167 87.373,215.979 87.114,215.750 86.902 C 215.521 86.690,215.333 86.397,215.333 86.253 C 215.333 86.108,215.221 85.946,215.083 85.894 C 214.946 85.841,214.833 85.693,214.833 85.566 C 214.833 85.438,214.721 85.333,214.583 85.333 C 214.446 85.333,214.333 85.221,214.333 85.083 C 214.333 84.946,214.221 84.833,214.083 84.833 C 213.946 84.833,213.833 84.721,213.833 84.583 C 213.833 84.446,213.721 84.333,213.583 84.333 C 213.428 84.333,213.333 84.176,213.333 83.917 C 213.333 83.688,213.258 83.500,213.167 83.500 C 213.075 83.500,213.000 83.387,213.000 83.250 C 213.000 83.112,212.887 83.000,212.750 83.000 C 212.612 83.000,212.500 82.887,212.500 82.750 C 212.500 82.612,212.387 82.500,212.250 82.500 C 212.112 82.500,212.000 82.387,212.000 82.250 C 212.000 82.112,211.887 82.000,211.750 82.000 C 211.594 82.000,211.500 81.843,211.500 81.583 C 211.500 81.324,211.406 81.167,211.250 81.167 C 211.112 81.167,211.000 81.054,211.000 80.917 C 211.000 80.779,210.925 80.667,210.833 80.667 C 210.742 80.667,210.667 80.554,210.667 80.417 C 210.667 80.279,210.554 80.167,210.417 80.167 C 210.279 80.167,210.167 80.054,210.167 79.917 C 210.167 79.779,210.054 79.667,209.917 79.667 C 209.778 79.667,209.667 79.519,209.667 79.333 C 209.667 78.986,209.123 78.333,208.833 78.333 C 208.742 78.333,208.667 78.221,208.667 78.083 C 208.667 77.946,208.554 77.833,208.417 77.833 C 208.279 77.833,208.167 77.721,208.167 77.583 C 208.167 77.446,208.100 77.333,208.018 77.333 C 207.936 77.333,207.820 77.136,207.760 76.895 C 207.642 76.429,206.813 75.500,206.513 75.500 C 206.414 75.500,206.333 75.387,206.333 75.250 C 206.333 75.112,206.221 75.000,206.083 75.000 C 205.917 75.000,205.833 74.833,205.833 74.500 C 205.833 74.167,205.750 74.000,205.583 74.000 C 205.446 74.000,205.333 73.920,205.333 73.821 C 205.333 73.591,204.909 73.167,204.679 73.167 C 204.580 73.167,204.500 73.054,204.500 72.917 C 204.500 72.779,204.387 72.667,204.250 72.667 C 204.106 72.667,204.000 72.516,204.000 72.314 C 204.000 72.120,203.700 71.661,203.333 71.294 C 202.967 70.927,202.667 70.561,202.667 70.480 C 202.667 70.400,202.554 70.333,202.417 70.333 C 202.279 70.333,202.167 70.221,202.167 70.083 C 202.167 69.946,202.054 69.833,201.917 69.833 C 201.760 69.833,201.667 69.675,201.667 69.411 C 201.667 69.179,201.554 68.946,201.417 68.894 C 201.279 68.841,201.167 68.693,201.167 68.566 C 201.167 68.438,201.086 68.333,200.987 68.333 C 200.709 68.333,199.893 67.450,199.749 66.994 C 199.678 66.768,199.443 66.418,199.227 66.216 C 199.010 66.014,198.833 65.771,198.833 65.675 C 198.833 65.579,198.721 65.500,198.583 65.500 C 198.446 65.500,198.333 65.425,198.333 65.333 C 198.333 65.242,198.221 65.167,198.083 65.167 C 197.917 65.167,197.833 65.000,197.833 64.667 C 197.833 64.333,197.750 64.167,197.583 64.167 C 197.446 64.167,197.333 64.083,197.333 63.980 C 197.333 63.878,197.033 63.503,196.667 63.147 C 196.300 62.792,196.000 62.350,196.000 62.167 C 196.000 61.982,195.889 61.833,195.750 61.833 C 195.612 61.833,195.500 61.721,195.500 61.583 C 195.500 61.446,195.387 61.333,195.250 61.333 C 195.112 61.333,195.000 61.248,195.000 61.144 C 195.000 61.040,194.813 60.781,194.583 60.569 C 194.354 60.356,194.167 60.064,194.167 59.919 C 194.167 59.775,194.062 59.616,193.933 59.567 C 193.543 59.417,193.494 58.836,193.846 58.534 C 194.022 58.383,194.167 58.088,194.167 57.880 C 194.167 57.671,194.247 57.500,194.345 57.500 C 194.576 57.500,195.000 57.076,195.000 56.845 C 195.000 56.747,195.112 56.667,195.250 56.667 C 195.387 56.667,195.500 56.554,195.500 56.417 C 195.500 56.279,195.612 56.167,195.750 56.167 C 195.887 56.167,196.000 56.054,196.000 55.917 C 196.000 55.779,196.112 55.667,196.250 55.667 C 196.387 55.667,196.500 55.554,196.500 55.417 C 196.500 55.279,196.580 55.167,196.679 55.167 C 196.909 55.167,197.333 54.743,197.333 54.512 C 197.333 54.414,197.446 54.333,197.583 54.333 C 197.721 54.333,197.833 54.221,197.833 54.083 C 197.833 53.946,197.946 53.833,198.083 53.833 C 198.221 53.833,198.333 53.721,198.333 53.583 C 198.333 53.446,198.446 53.333,198.583 53.333 C 198.721 53.333,198.833 53.221,198.833 53.083 C 198.833 52.946,198.946 52.833,199.083 52.833 C 199.221 52.833,199.333 52.760,199.333 52.671 C 199.333 52.460,200.793 51.000,201.004 51.000 C 201.094 51.000,201.167 50.775,201.167 50.500 C 201.167 50.167,201.250 50.000,201.417 50.000 C 201.554 50.000,201.667 49.925,201.667 49.833 C 201.667 49.742,201.779 49.667,201.917 49.667 C 202.054 49.667,202.167 49.554,202.167 49.417 C 202.167 49.279,202.279 49.167,202.417 49.167 C 202.554 49.167,202.667 49.054,202.667 48.917 C 202.667 48.779,202.742 48.667,202.833 48.667 C 202.925 48.667,203.000 48.554,203.000 48.417 C 203.000 48.279,203.112 48.167,203.250 48.167 C 203.387 48.167,203.500 48.054,203.500 47.917 C 203.500 47.779,203.612 47.667,203.750 47.667 C 203.887 47.667,204.000 47.554,204.000 47.417 C 204.000 47.279,204.081 47.167,204.179 47.167 C 204.413 47.167,205.333 46.246,205.333 46.013 C 205.333 45.914,205.446 45.833,205.583 45.833 C 205.721 45.833,205.833 45.721,205.833 45.583 C 205.833 45.446,205.946 45.333,206.083 45.333 C 206.221 45.333,206.333 45.221,206.333 45.083 C 206.333 44.946,206.446 44.833,206.583 44.833 C 206.721 44.833,206.833 44.721,206.833 44.583 C 206.833 44.446,206.933 44.333,207.055 44.333 C 207.177 44.333,207.377 44.146,207.500 43.917 C 207.623 43.688,207.823 43.500,207.945 43.500 C 208.067 43.500,208.167 43.387,208.167 43.250 C 208.167 43.112,208.279 43.000,208.417 43.000 C 208.583 43.000,208.667 42.833,208.667 42.500 C 208.667 42.167,208.750 42.000,208.917 42.000 C 209.054 42.000,209.167 41.925,209.167 41.833 C 209.167 41.742,209.279 41.667,209.417 41.667 C 209.554 41.667,209.667 41.554,209.667 41.417 C 209.667 41.279,209.779 41.167,209.917 41.167 C 210.054 41.167,210.167 41.054,210.167 40.917 C 210.167 40.779,210.279 40.667,210.417 40.667 C 210.554 40.667,210.667 40.554,210.667 40.417 C 210.667 40.279,210.742 40.167,210.833 40.167 C 210.925 40.167,211.000 40.054,211.000 39.917 C 211.000 39.779,211.112 39.667,211.250 39.667 C 211.387 39.667,211.500 39.554,211.500 39.417 C 211.500 39.279,211.581 39.167,211.680 39.167 C 211.914 39.167,213.333 37.747,213.333 37.513 C 213.333 37.414,213.446 37.333,213.583 37.333 C 213.721 37.333,213.833 37.221,213.833 37.083 C 213.833 36.946,213.946 36.833,214.083 36.833 C 214.221 36.833,214.333 36.721,214.333 36.583 C 214.333 36.446,214.407 36.333,214.498 36.333 C 214.919 36.333,215.333 35.736,215.333 35.130 L 215.333 34.500 209.167 34.500 C 203.796 34.500,203.000 34.532,203.000 34.750 C 203.000 34.887,202.925 35.000,202.833 35.000 C 202.742 35.000,202.667 35.112,202.667 35.250 C 202.667 35.387,202.554 35.500,202.417 35.500 C 202.279 35.500,202.167 35.612,202.167 35.750 C 202.167 35.887,202.054 36.000,201.917 36.000 C 201.779 36.000,201.667 36.112,201.667 36.250 C 201.667 36.387,201.586 36.500,201.487 36.500 C 201.253 36.500,199.833 37.919,199.833 38.154 C 199.833 38.252,199.721 38.333,199.583 38.333 C 199.446 38.333,199.333 38.446,199.333 38.583 C 199.333 38.721,199.221 38.833,199.083 38.833 C 198.946 38.833,198.833 38.946,198.833 39.083 C 198.833 39.221,198.753 39.333,198.654 39.333 C 198.421 39.333,197.500 40.254,197.500 40.487 C 197.500 40.586,197.387 40.667,197.250 40.667 C 197.112 40.667,197.000 40.779,197.000 40.917 C 197.000 41.054,196.887 41.167,196.750 41.167 C 196.612 41.167,196.500 41.279,196.500 41.417 C 196.500 41.554,196.427 41.667,196.338 41.667 C 196.126 41.667,194.667 43.126,194.667 43.338 C 194.667 43.427,194.554 43.500,194.417 43.500 C 194.279 43.500,194.167 43.612,194.167 43.750 C 194.167 43.887,194.054 44.000,193.917 44.000 C 193.779 44.000,193.667 44.112,193.667 44.250 C 193.667 44.387,193.554 44.500,193.417 44.500 C 193.261 44.500,193.167 44.657,193.167 44.917 C 193.167 45.176,193.072 45.333,192.917 45.333 C 192.779 45.333,192.667 45.446,192.667 45.583 C 192.667 45.721,192.554 45.833,192.417 45.833 C 192.279 45.833,192.167 45.946,192.167 46.083 C 192.167 46.221,192.092 46.333,192.000 46.333 C 191.908 46.333,191.833 46.446,191.833 46.583 C 191.833 46.721,191.721 46.833,191.583 46.833 C 191.446 46.833,191.333 46.908,191.333 47.000 C 191.333 47.092,191.221 47.167,191.083 47.167 C 190.946 47.167,190.833 47.279,190.833 47.417 C 190.833 47.554,190.721 47.667,190.583 47.667 C 190.446 47.667,190.333 47.779,190.333 47.917 C 190.333 48.054,190.221 48.167,190.083 48.167 C 189.946 48.167,189.833 48.245,189.833 48.341 C 189.833 48.437,189.646 48.690,189.417 48.902 C 189.188 49.114,189.000 49.373,189.000 49.477 C 189.000 49.582,188.887 49.667,188.750 49.667 C 188.612 49.667,188.500 49.742,188.500 49.833 C 188.500 49.925,188.387 50.000,188.250 50.000 C 188.112 50.000,188.000 50.112,188.000 50.250 C 188.000 50.387,187.887 50.500,187.750 50.500 C 187.612 50.500,187.500 50.612,187.500 50.750 C 187.500 50.887,187.387 51.000,187.250 51.000 C 187.112 51.000,187.000 51.112,187.000 51.250 C 187.000 51.387,186.925 51.500,186.833 51.500 C 186.742 51.500,186.667 51.612,186.667 51.750 C 186.667 51.887,186.582 52.000,186.477 52.000 C 186.373 52.000,186.114 52.188,185.902 52.417 C 185.690 52.646,185.437 52.833,185.341 52.833 C 185.245 52.833,185.167 52.946,185.167 53.083 C 185.167 53.221,185.054 53.333,184.917 53.333 C 184.779 53.333,184.667 53.412,184.667 53.508 C 184.667 53.604,184.479 53.856,184.250 54.069 C 184.021 54.281,183.833 54.540,183.833 54.644 C 183.833 54.748,183.760 54.833,183.671 54.833 C 183.444 54.833,181.500 56.758,181.500 56.983 C 181.500 57.084,181.387 57.167,181.250 57.167 C 181.112 57.167,181.000 57.279,181.000 57.417 C 181.000 57.554,180.887 57.667,180.750 57.667 C 180.594 57.667,180.500 57.824,180.500 58.083 C 180.500 58.343,180.406 58.500,180.250 58.500 C 180.112 58.500,180.000 58.612,180.000 58.750 C 180.000 58.887,179.887 59.000,179.750 59.000 C 179.612 59.000,179.500 59.112,179.500 59.250 C 179.500 59.387,179.387 59.500,179.250 59.500 C 179.112 59.500,179.000 59.580,179.000 59.679 C 179.000 59.909,178.576 60.333,178.345 60.333 C 178.247 60.333,178.167 60.446,178.167 60.583 C 178.167 60.721,178.054 60.833,177.917 60.833 C 177.697 60.833,177.667 59.259,177.667 47.667 L 177.667 34.500 172.250 34.500 L 166.833 34.500 166.833 61.750 M222.833 61.750 L 222.833 89.000 243.500 89.000 L 264.167 89.000 264.167 84.333 L 264.167 79.667 248.917 79.667 L 233.667 79.667 233.667 72.833 L 233.667 66.000 246.583 66.000 L 259.500 66.000 259.500 61.333 L 259.500 56.667 246.583 56.667 L 233.667 56.667 233.667 50.083 L 233.667 43.500 248.250 43.500 L 262.833 43.500 262.833 39.000 L 262.833 34.500 242.833 34.500 L 222.833 34.500 222.833 61.750 M274.167 61.750 L 274.167 89.000 279.750 89.000 L 285.333 89.000 285.333 71.494 L 285.333 53.989 285.833 54.500 C 286.108 54.781,286.333 55.124,286.333 55.261 C 286.333 55.398,286.446 55.554,286.583 55.606 C 286.721 55.659,286.833 55.807,286.833 55.934 C 286.833 56.062,286.946 56.167,287.083 56.167 C 287.221 56.167,287.333 56.279,287.333 56.417 C 287.333 56.554,287.446 56.667,287.583 56.667 C 287.721 56.667,287.833 56.779,287.833 56.917 C 287.833 57.054,287.907 57.167,287.997 57.167 C 288.087 57.167,288.207 57.354,288.265 57.583 C 288.322 57.813,288.436 58.000,288.518 58.000 C 288.600 58.000,288.667 58.112,288.667 58.250 C 288.667 58.387,288.779 58.500,288.917 58.500 C 289.054 58.500,289.167 58.612,289.167 58.750 C 289.167 58.887,289.279 59.000,289.417 59.000 C 289.554 59.000,289.667 59.112,289.667 59.250 C 289.667 59.387,289.779 59.500,289.917 59.500 C 290.054 59.500,290.167 59.612,290.167 59.750 C 290.167 59.887,290.279 60.000,290.417 60.000 C 290.561 60.000,290.667 60.151,290.667 60.356 C 290.667 60.552,290.854 60.886,291.083 61.098 C 291.313 61.310,291.500 61.563,291.500 61.659 C 291.500 61.755,291.612 61.833,291.750 61.833 C 291.887 61.833,292.000 61.946,292.000 62.083 C 292.000 62.221,292.112 62.333,292.250 62.333 C 292.406 62.333,292.500 62.491,292.500 62.750 C 292.500 63.009,292.594 63.167,292.750 63.167 C 292.887 63.167,293.000 63.245,293.000 63.341 C 293.000 63.437,293.188 63.690,293.417 63.902 C 293.646 64.114,293.833 64.373,293.833 64.477 C 293.833 64.582,293.946 64.667,294.083 64.667 C 294.221 64.667,294.333 64.779,294.333 64.917 C 294.333 65.054,294.446 65.167,294.583 65.167 C 294.739 65.167,294.833 65.324,294.833 65.583 C 294.833 65.843,294.928 66.000,295.083 66.000 C 295.221 66.000,295.333 66.112,295.333 66.250 C 295.333 66.387,295.446 66.500,295.583 66.500 C 295.721 66.500,295.833 66.585,295.833 66.689 C 295.833 66.793,296.021 67.052,296.250 67.265 C 296.479 67.477,296.667 67.769,296.667 67.914 C 296.667 68.059,296.779 68.220,296.917 68.273 C 297.054 68.326,297.167 68.473,297.167 68.601 C 297.167 68.729,297.279 68.833,297.417 68.833 C 297.554 68.833,297.667 68.946,297.667 69.083 C 297.667 69.221,297.779 69.333,297.917 69.333 C 298.054 69.333,298.167 69.446,298.167 69.583 C 298.167 69.721,298.279 69.833,298.417 69.833 C 298.561 69.833,298.667 69.984,298.667 70.189 C 298.667 70.385,298.854 70.719,299.083 70.931 C 299.313 71.144,299.500 71.396,299.500 71.492 C 299.500 71.588,299.612 71.667,299.750 71.667 C 299.887 71.667,300.000 71.779,300.000 71.917 C 300.000 72.054,300.112 72.167,300.250 72.167 C 300.387 72.167,300.500 72.279,300.500 72.417 C 300.500 72.554,300.612 72.667,300.750 72.667 C 300.891 72.667,301.000 72.816,301.000 73.008 C 301.000 73.196,301.188 73.523,301.417 73.735 C 301.646 73.948,301.833 74.207,301.833 74.311 C 301.833 74.415,301.946 74.500,302.083 74.500 C 302.221 74.500,302.333 74.612,302.333 74.750 C 302.333 74.887,302.446 75.000,302.583 75.000 C 302.739 75.000,302.833 75.157,302.833 75.417 C 302.833 75.676,302.928 75.833,303.083 75.833 C 303.221 75.833,303.333 75.946,303.333 76.083 C 303.333 76.221,303.446 76.333,303.583 76.333 C 303.721 76.333,303.833 76.418,303.833 76.523 C 303.833 76.627,304.021 76.886,304.250 77.098 C 304.479 77.310,304.667 77.638,304.667 77.825 C 304.667 78.018,304.776 78.167,304.917 78.167 C 305.054 78.167,305.167 78.279,305.167 78.417 C 305.167 78.554,305.279 78.667,305.417 78.667 C 305.554 78.667,305.667 78.779,305.667 78.917 C 305.667 79.054,305.779 79.167,305.917 79.167 C 306.054 79.167,306.167 79.279,306.167 79.417 C 306.167 79.554,306.279 79.667,306.417 79.667 C 306.554 79.667,306.667 79.779,306.667 79.917 C 306.667 80.054,306.742 80.167,306.833 80.167 C 306.925 80.167,307.000 80.319,307.000 80.505 C 307.000 80.691,307.112 80.887,307.250 80.940 C 307.387 80.992,307.500 81.140,307.500 81.268 C 307.500 81.396,307.612 81.500,307.750 81.500 C 307.887 81.500,308.000 81.612,308.000 81.750 C 308.000 81.887,308.112 82.000,308.250 82.000 C 308.387 82.000,308.500 82.112,308.500 82.250 C 308.500 82.387,308.612 82.500,308.750 82.500 C 308.891 82.500,309.000 82.649,309.000 82.841 C 309.000 83.029,309.188 83.356,309.417 83.569 C 309.646 83.781,309.833 84.040,309.833 84.144 C 309.833 84.248,309.946 84.333,310.083 84.333 C 310.221 84.333,310.333 84.446,310.333 84.583 C 310.333 84.721,310.446 84.833,310.583 84.833 C 310.721 84.833,310.833 84.946,310.833 85.083 C 310.833 85.221,310.946 85.333,311.083 85.333 C 311.239 85.333,311.333 85.491,311.333 85.750 C 311.333 86.009,311.428 86.167,311.583 86.167 C 311.721 86.167,311.833 86.279,311.833 86.417 C 311.833 86.554,311.908 86.667,312.000 86.667 C 312.092 86.667,312.167 86.779,312.167 86.917 C 312.167 87.054,312.279 87.167,312.417 87.167 C 312.554 87.167,312.667 87.279,312.667 87.417 C 312.667 87.554,312.779 87.667,312.917 87.667 C 313.072 87.667,313.167 87.824,313.167 88.083 C 313.167 88.343,313.261 88.500,313.417 88.500 C 313.554 88.500,313.667 88.612,313.667 88.750 C 313.667 88.966,314.296 89.000,318.333 89.000 L 323.000 89.000 323.000 61.748 L 323.000 34.495 317.625 34.539 L 312.250 34.583 312.208 51.958 C 312.184 61.515,312.128 69.333,312.083 69.333 C 311.862 69.333,311.333 68.628,311.333 68.333 C 311.333 68.148,311.222 68.000,311.083 68.000 C 310.946 68.000,310.833 67.887,310.833 67.750 C 310.833 67.612,310.721 67.500,310.583 67.500 C 310.446 67.500,310.333 67.387,310.333 67.250 C 310.333 67.112,310.221 67.000,310.083 67.000 C 309.946 67.000,309.833 66.887,309.833 66.750 C 309.833 66.612,309.721 66.500,309.583 66.500 C 309.446 66.500,309.333 66.387,309.333 66.250 C 309.333 66.112,309.258 66.000,309.167 66.000 C 309.075 66.000,309.000 65.848,309.000 65.661 C 309.000 65.475,308.887 65.280,308.750 65.227 C 308.612 65.174,308.500 65.027,308.500 64.899 C 308.500 64.771,308.387 64.667,308.250 64.667 C 308.112 64.667,308.000 64.554,308.000 64.417 C 308.000 64.279,307.887 64.167,307.750 64.167 C 307.612 64.167,307.500 64.054,307.500 63.917 C 307.500 63.779,307.387 63.667,307.250 63.667 C 307.106 63.667,307.000 63.516,307.000 63.311 C 307.000 63.115,306.813 62.781,306.583 62.569 C 306.354 62.356,306.167 62.104,306.167 62.008 C 306.167 61.912,306.054 61.833,305.917 61.833 C 305.779 61.833,305.667 61.721,305.667 61.583 C 305.667 61.446,305.554 61.333,305.417 61.333 C 305.279 61.333,305.167 61.221,305.167 61.083 C 305.167 60.946,305.054 60.833,304.917 60.833 C 304.761 60.833,304.667 60.676,304.667 60.417 C 304.667 60.157,304.572 60.000,304.417 60.000 C 304.279 60.000,304.167 59.887,304.167 59.750 C 304.167 59.612,304.092 59.500,304.000 59.500 C 303.908 59.500,303.833 59.387,303.833 59.250 C 303.833 59.112,303.721 59.000,303.583 59.000 C 303.446 59.000,303.333 58.887,303.333 58.750 C 303.333 58.612,303.221 58.500,303.083 58.500 C 302.928 58.500,302.833 58.343,302.833 58.083 C 302.833 57.824,302.739 57.667,302.583 57.667 C 302.446 57.667,302.333 57.554,302.333 57.417 C 302.333 57.279,302.221 57.167,302.083 57.167 C 301.946 57.167,301.833 57.054,301.833 56.917 C 301.833 56.779,301.721 56.667,301.583 56.667 C 301.446 56.667,301.333 56.554,301.333 56.417 C 301.333 56.279,301.258 56.167,301.167 56.167 C 301.075 56.167,300.998 56.035,300.994 55.875 C 300.988 55.532,300.443 54.833,300.182 54.833 C 300.082 54.833,300.000 54.721,300.000 54.583 C 300.000 54.446,299.887 54.333,299.750 54.333 C 299.612 54.333,299.500 54.221,299.500 54.083 C 299.500 53.946,299.387 53.833,299.250 53.833 C 299.112 53.833,299.000 53.721,299.000 53.583 C 299.000 53.446,298.933 53.333,298.851 53.333 C 298.770 53.333,298.656 53.146,298.598 52.917 C 298.541 52.688,298.420 52.500,298.330 52.500 C 298.240 52.500,298.167 52.387,298.167 52.250 C 298.167 52.112,298.054 52.000,297.917 52.000 C 297.779 52.000,297.667 51.887,297.667 51.750 C 297.667 51.612,297.554 51.500,297.417 51.500 C 297.279 51.500,297.167 51.387,297.167 51.250 C 297.167 51.112,297.054 51.000,296.917 51.000 C 296.765 51.000,296.667 50.845,296.667 50.607 C 296.667 50.382,296.488 50.079,296.250 49.900 C 296.021 49.728,295.833 49.493,295.833 49.377 C 295.833 49.261,295.721 49.167,295.583 49.167 C 295.446 49.167,295.333 49.054,295.333 48.917 C 295.333 48.779,295.221 48.667,295.083 48.667 C 294.939 48.667,294.833 48.516,294.833 48.311 C 294.833 47.967,293.801 46.833,293.488 46.833 C 293.403 46.833,293.333 46.721,293.333 46.583 C 293.333 46.446,293.258 46.333,293.167 46.333 C 293.075 46.333,293.000 46.221,293.000 46.083 C 293.000 45.946,292.887 45.833,292.750 45.833 C 292.601 45.833,292.500 45.680,292.500 45.454 C 292.500 45.082,291.991 44.500,291.665 44.500 C 291.574 44.500,291.500 44.387,291.500 44.250 C 291.500 44.112,291.387 44.000,291.250 44.000 C 291.112 44.000,291.000 43.887,291.000 43.750 C 291.000 43.612,290.933 43.500,290.851 43.500 C 290.770 43.500,290.653 43.303,290.593 43.062 C 290.476 42.596,289.646 41.667,289.346 41.667 C 289.247 41.667,289.167 41.554,289.167 41.417 C 289.167 41.279,289.054 41.167,288.917 41.167 C 288.779 41.167,288.667 41.054,288.667 40.917 C 288.667 40.779,288.554 40.667,288.417 40.667 C 288.270 40.667,288.164 40.512,288.161 40.292 C 288.155 39.862,287.803 39.333,287.523 39.333 C 287.419 39.333,287.333 39.221,287.333 39.083 C 287.333 38.946,287.221 38.833,287.083 38.833 C 286.946 38.833,286.833 38.721,286.833 38.583 C 286.833 38.446,286.721 38.333,286.583 38.333 C 286.427 38.333,286.333 38.175,286.333 37.911 C 286.333 37.679,286.221 37.446,286.083 37.394 C 285.946 37.341,285.833 37.193,285.833 37.066 C 285.833 36.938,285.753 36.833,285.655 36.833 C 285.424 36.833,285.000 36.409,285.000 36.179 C 285.000 36.080,284.887 36.000,284.750 36.000 C 284.607 36.000,284.500 35.850,284.500 35.648 C 284.500 35.455,284.331 35.119,284.125 34.901 L 283.750 34.506 278.958 34.503 L 274.167 34.500 274.167 61.750 M329.706 39.208 L 329.750 43.917 338.625 43.960 L 347.500 44.003 347.500 66.501 L 347.500 89.000 352.917 89.000 L 358.333 89.000 358.333 66.500 L 358.333 44.000 367.250 44.000 L 376.167 44.000 376.167 39.250 L 376.167 34.500 352.914 34.500 L 329.661 34.500 329.706 39.208 M53.833 46.750 C 53.833 47.009,53.928 47.167,54.083 47.167 C 54.264 47.167,54.333 47.352,54.333 47.839 C 54.333 48.282,54.418 48.543,54.583 48.606 C 54.721 48.659,54.833 48.884,54.833 49.106 C 54.833 49.329,54.946 49.554,55.083 49.606 C 55.221 49.659,55.333 49.882,55.333 50.101 C 55.333 50.345,55.431 50.500,55.583 50.500 C 55.764 50.500,55.833 50.685,55.833 51.167 C 55.833 51.533,55.908 51.833,56.000 51.833 C 56.092 51.833,56.167 52.023,56.167 52.255 C 56.167 52.487,56.279 52.720,56.417 52.773 C 56.559 52.828,56.667 53.076,56.667 53.351 C 56.667 53.669,56.752 53.833,56.917 53.833 C 57.097 53.833,57.167 54.019,57.167 54.500 C 57.167 54.981,57.236 55.167,57.417 55.167 C 57.583 55.167,57.667 55.333,57.667 55.667 C 57.667 56.000,57.750 56.167,57.917 56.167 C 58.083 56.167,58.167 56.333,58.167 56.667 C 58.167 57.000,58.250 57.167,58.417 57.167 C 58.597 57.167,58.667 57.352,58.667 57.833 C 58.667 58.200,58.742 58.500,58.833 58.500 C 58.925 58.500,59.000 58.690,59.000 58.922 C 59.000 59.154,59.112 59.387,59.250 59.440 C 59.387 59.492,59.500 59.715,59.500 59.934 C 59.500 60.178,59.597 60.333,59.750 60.333 C 59.931 60.333,60.000 60.519,60.000 61.005 C 60.000 61.449,60.085 61.710,60.250 61.773 C 60.387 61.826,60.500 62.048,60.500 62.268 C 60.500 62.511,60.597 62.667,60.750 62.667 C 60.917 62.667,61.000 62.833,61.000 63.167 C 61.000 63.442,61.075 63.667,61.167 63.667 C 61.258 63.667,61.333 63.811,61.333 63.988 C 61.333 64.165,61.446 64.422,61.583 64.560 C 61.721 64.697,61.833 65.077,61.833 65.405 C 61.833 65.823,61.908 66.000,62.083 66.000 C 62.250 66.000,62.333 66.167,62.333 66.500 C 62.333 66.833,62.417 67.000,62.583 67.000 C 62.739 67.000,62.833 67.157,62.833 67.417 L 62.833 67.833 53.667 67.833 C 48.519 67.833,44.500 67.769,44.500 67.687 C 44.500 67.607,44.612 67.447,44.750 67.333 C 44.887 67.219,45.000 66.873,45.000 66.563 C 45.000 66.253,45.075 66.000,45.167 66.000 C 45.258 66.000,45.333 65.821,45.333 65.601 C 45.333 65.382,45.446 65.159,45.583 65.106 C 45.721 65.054,45.833 64.821,45.833 64.589 C 45.833 64.325,45.927 64.167,46.083 64.167 C 46.269 64.167,46.333 63.972,46.333 63.417 C 46.333 62.861,46.398 62.667,46.583 62.667 C 46.736 62.667,46.833 62.511,46.833 62.268 C 46.833 62.048,46.946 61.826,47.083 61.773 C 47.221 61.720,47.333 61.519,47.333 61.327 C 47.333 61.134,47.446 60.864,47.583 60.726 C 47.721 60.589,47.833 60.257,47.833 59.988 C 47.833 59.720,47.908 59.500,48.000 59.500 C 48.092 59.500,48.167 59.275,48.167 59.000 C 48.167 58.667,48.250 58.500,48.417 58.500 C 48.583 58.500,48.667 58.333,48.667 58.000 C 48.667 57.667,48.750 57.500,48.917 57.500 C 49.097 57.500,49.167 57.315,49.167 56.833 C 49.167 56.352,49.236 56.167,49.417 56.167 C 49.583 56.167,49.667 56.000,49.667 55.667 C 49.667 55.333,49.750 55.167,49.917 55.167 C 50.063 55.167,50.169 55.012,50.172 54.792 C 50.175 54.585,50.287 54.271,50.422 54.093 C 50.557 53.915,50.667 53.559,50.667 53.301 C 50.667 53.044,50.742 52.833,50.833 52.833 C 50.925 52.833,51.000 52.654,51.000 52.434 C 51.000 52.215,51.112 51.992,51.250 51.940 C 51.387 51.887,51.500 51.662,51.500 51.440 C 51.500 51.217,51.612 50.992,51.750 50.940 C 51.905 50.880,52.000 50.627,52.000 50.273 C 52.000 49.919,52.095 49.666,52.250 49.606 C 52.387 49.554,52.500 49.329,52.500 49.106 C 52.500 48.884,52.612 48.659,52.750 48.606 C 52.887 48.554,53.000 48.321,53.000 48.089 C 53.000 47.857,53.075 47.667,53.167 47.667 C 53.258 47.667,53.333 47.367,53.333 47.000 C 53.333 46.519,53.403 46.333,53.583 46.333 C 53.739 46.333,53.833 46.491,53.833 46.750  M -25 0 L -5 0 L -5 20 L -25 20 Z M 405 0 L 425 0 L 425 20 L 405 20 Z" stroke="none" fill="#0444b4" fill-rule="evenodd" transform="translate(30,0)"></path><path id="path1" d=" M -25 0 L -5 0 L -5 20 L -25 20 Z M 405 0 L 425 0 L 425 20 L 405 20 Z" stroke="none" fill="#0844b4" fill-rule="evenodd" transform="translate(490,0)"></path></g></svg>