<?xml version="1.0" encoding="utf-8"?>
<!-- Generator: Adobe Illustrator 22.1.0, SVG Export Plug-In . SVG Version: 6.00 Build 0)  -->
<svg version="1.1" id="Layer_1" xmlns="http://www.w3.org/2000/svg" xmlns:xlink="http://www.w3.org/1999/xlink" x="0px" y="0px"
	 viewBox="0 0 1285 150.8" style="enable-background:new 0 0 1285 150.8;" xml:space="preserve">
<style type="text/css">
	.st0{opacity:0.3;}
	.st1{fill:#CCCCCC;}
	.st2{fill:#8A888C;}
	.st3{fill:#7F7F7F;}
	.st4{fill:#616161;}
	.st5{fill:#003A5D;}
</style>
<g class="st0">
	<path class="st1" d="M59.9,145.4l256.4-0.3c0,0-46.4,2.6-81.7-35.6h-1.5l6.1,6.7h-6.4c0,0-22.6-21.8-22.6-32.4H209
		c0,0-4.6-18.9-4.5-27.9h-0.7c0,0-4.7,31.2-15.3,43.1h-6.8c0,0,1.5-2.2,3.9-7h-1.5c0,0-6.7,13.4-15.1,21.1h-7.3l2.8-3.8h-1.6"/>
	<path class="st1" d="M1098.3,146l5.3-7.2v-12.1l0.7,3l1.1,0.2c0,0,1.7-1.4,2-1.8c0.3-0.4,1.9-2.6,2.9-3.3c1-0.7,2-1,2-1l0.2-4
		l0.9,1.9l-0.5,0.6v1.2c0,0,2.7,1,3.5,1.9c0.8,0.8,1.8,3.2,2.3,3.4s2.7,1.4,3,1.4s1.3-0.1,1.3-0.1l7.8,2.2l19.2,6.1v9.7L1098.3,146z
		"/>
	<path class="st1" d="M1009.1,144.7V92.9h0.6v-2.5h-1.2v-5.7c0,0,1-2.9,1.9-2.8c0.8,0.1,2.3,0.1,5.2,2.8c4.4,4.1,4.4,5.2,4.4,5.2
		h2.6v-3.4l5.4-6.7V77l-2.2,1v-2.5l3-2.1v6.1l0.8,0.3l0.1,1l0.8,0.1v65.7h-22.4L1009.1,144.7z"/>
	<path class="st1" d="M415.2,139.1V93.8l-1.4-0.5l0.7-0.8l0.3-0.9c0,0,0.1-0.6,0.3-0.6c0.2-0.1,0.6-0.3,0.8-0.3c0.3,0,1-0.2,1-0.2
		h1.3l-0.1-1.7h0.5l0.1,1.3h0.5l0.1-1.5h0.4l0.1,1.4l1.2-0.1l-0.1-2.1c0,0,0.8-0.1,1-0.2s0.7,0.1,0.9-0.2s1.1-2.2,1.4-2.6
		s1.7-1.2,2.2-1.3c0.6-0.1,2.3,0.1,2.3,0.1l0.2-3.5h0.4l0.1-1l-0.8-0.4l0.4-0.6l0.6-0.3l0.2,4.6l0.4,0.6l0.1,0.9
		c0,0,0.3,0.4,0.5,0.4c0.2,0.1,0.8,0.8,0.8,0.8l1.6,0.1l3.3,2.5l1-0.2l0.7-0.6l0.2-0.8l0.5,0.1l0.1,1.3c0,0,0.3,0.4,0.5,0.4
		s0.6-0.1,0.6-0.1l0.1-0.8l0.6-0.1l1,0.6l0.2,0.8l1.4,0.4l0.5,2.4l1.2,0.1L445,92l-1,0.1v50.2L415.2,139.1z"/>
	<path class="st2" d="M158,145.5l-0.1-4l-0.4-0.4l0.9-1.3l0.8,0.4l0.1,1.2c0,0-0.3,0.3-0.2,0.7s0.2,0.8,0.2,1.3s-0.1,2.4-0.1,2.4
		L158,145.5z"/>
	<polyline class="st2" points="143.9,145.4 149.6,147.1 154.2,146.3 	"/>
	<path class="st1" d="M400.5,135.3v-2.5h-0.7v-0.9h0.7v-1.1H400v-0.9h0.7v-1.1h-1v-1h0.8v-1h-0.8v-1.1h0.6v-1.1h-0.8v-0.9h0.7v-1
		h-0.9V122h0.7v-1.3h-4.4l-1.7,1.7H381v-7.2l0.4-0.9l-0.5-0.4h-1.7c0,0-1.3-1.1-1.7-1.2c-0.3-0.1-1-0.5-1-0.5l-0.4-3l-0.3,3
		c0,0-1.9,0.9-2.3,1.5c-0.3,0.5-0.5,2.2-0.5,2.2h-4.3l-8.4-3.2l-2.1-0.5l-1.6-0.4l-2.3-1.6l-2-0.7l-0.4-0.2l-0.5-4.3l-0.5,4.2
		l-1.5,0.7l-1.1,0.7l-0.5,0.2c0,0-0.8-0.5-1-0.6s-0.9-0.4-0.9-0.4l-0.5-0.1l-2.2,0.2l-0.9-0.6l-1.6-0.5l-1.1,0.5l-1.2,0.1l-0.1-0.3
		l0.1-1.2l-1.8-1.1l-0.7-0.8l-0.7-0.4l-0.2-0.4l-0.5-3.3l-0.4,3.6l-1.7,0.3c0,0-0.1,1.1-0.3,1.1s-1.6-0.1-1.6-0.1l-3.4-0.6
		l-6.4,14.2l-2.3,9.3l24.5,7.6l27,0.5l8.6,0.5l21.9,0.5L400.5,135.3z"/>
	<path class="st1" d="M564.6,124.4V90.9c0,0,1.6-2.5,1.5-2.8s-0.3-1.1-0.3-1.1l0.9,0.1l2.4-2l-0.3-0.9l-0.1-1.1l1.7-1
		c0,0,0.4-0.1,0.7-0.2s0.9-0.3,0.9-0.3l0.1-0.7l-0.5-0.5l0.4-0.5l0.6-0.5l0.4,0.3l-0.1,0.6c0,0-0.3,0.5-0.3,0.7s0.1,0.7,0.1,0.7
		l1.2,0.4l0.7,0.7c0,0,0.3,0.7,0.6,0.9c0.3,0.1,1.7,0.3,1.7,0.3l1.6,0.5l0.4,0.7l0.7,0.1c0,0,0.9-1.5,1.6-1.3s1,0.9,1,0.9
		s0.1,0.5,0.1,0.8v4.4c0,0,0.8,0.9,0.8,1.3s-0.9,1.1-0.9,1.1v46.8l-15.6-9.9L564.6,124.4z"/>
	<polygon class="st1" points="554.8,118.6 554.8,88 553.8,87.7 553.8,86.5 549,83.2 547.9,83.2 547.9,83.8 547,83.8 547,81 546,81 
		546,84 545,84 545,83 538.9,86.7 538.9,87.7 537.7,88 537.7,143.8 549.9,143.6 	"/>
	<path class="st1" d="M648.6,134.1v-18.5h-3.4v-1.5H632l-0.1-1.1h-0.8l-0.1,1.2l-1.2,0.1v-1.8h-4.7v-0.7l0.2-0.9
		c0,0,0.7-0.1,0.8-0.8c0.1-0.7-0.9-0.9-0.9-0.9s-0.2-3.8-2.2-6.6c-2-2.8-4.5-3.4-4.5-3.4v-7.5h-0.9l-0.1,7.6c0,0-2.7,1.1-4.3,4.4
		c-1.7,3.3-1.5,5.1-1.5,5.1s-1.3,0.5-1.3,1.1c0,0.7,1.3,1.7,1.3,1.7l-0.3,0.5l-1.5,1.7l-0.8,1h-13.5v26.7h56L648.6,134.1z"/>
	<polygon class="st1" points="684.9,131.4 684.9,116.7 683.3,114.6 685,113.9 685.2,113.1 686.7,112.7 687.1,111.6 688.9,111.3 
		690.2,108.8 690.8,108.8 692.7,106 692.9,98 693.6,98 693.7,99.2 695,99.2 694.8,100.1 694.3,101.1 693.7,101.4 693.5,103.3 
		693.7,106.2 694.9,107.2 694.8,108.6 696.1,109.1 696.6,110.3 698.9,110.9 700.7,112.6 701.6,113.8 701.8,114.5 702.3,117.8 
		702.3,147.7 688.6,146.7 684.7,131.3 	"/>
	<path class="st1" d="M881.7,131L881,89.2l-0.9-0.9l-2.1-0.7l-0.1-1.7c0,0,0.3-0.3-0.9-0.3s-3.7,0.3-3.7,0.3l-5.4,1.5l-0.7,1.1
		l-0.3,1.3l-1.6,0.7l-0.4,0.7l0.5,53.4l13.1,1.3L881.7,131z"/>
	<polygon class="st1" points="843.1,132.9 842.9,107.4 843.6,106.2 842.9,105 842.9,102 842.6,100.2 842.6,98.9 841.7,98.2 
		840.6,98.1 839.3,98.6 838.1,98.8 836.5,98.5 835.3,97.7 834.8,97.1 833.7,96.1 833.1,95.5 833.1,93 832.4,93.1 832.3,95.7 
		831.5,96.4 830,96.5 829.6,97.8 829.2,99.6 824.5,104.8 825.4,106.1 825.1,130.3 	"/>
	<path class="st1" d="M1201.9,137.7v-27.6l0.8-0.5l0.1-1.4h0.6l0.1-0.8l-4.4-0.3l0.1-1l0.5-0.6l0.1-0.6l-1.7-0.2l-1.3-1.5l-1-0.5
		l-0.3,0.6l-0.8,1l-1.5,0.9l-0.9,0.1v0.7l0.6,0.8v0.3l-10.8,0.7c0,0,0.1-0.4,0.2-0.7c0.1-0.3,0.3-1.6,0.3-1.6l-5.8-0.4l-1.8-2.5
		v-1.2l-1.1-0.2l-0.8-1.1l-0.9-0.5l-0.6-1.3v-5.5h-0.5v0.7l-3.1,1.3l0.4,2l2.7-0.8v2.3c0,0-0.3,1.2-0.5,1.2
		c-0.2,0.1-1.1,0.1-1.1,0.1l-0.3,1.3l-1.3,0.5l-0.6,1.7l-1.3,2l-6.1,0.3l-0.1,2l-8.8-1.3l0.1-1l0.3-0.1l0.1-0.5l-1.3-0.1l-1.8-2
		l-0.1-3.7h-0.3v3.6l-2.2,2h-1.9l0.6,0.9l0.4,0.8v0.6h-4.6v0.7l0.5,0.2l0.1,1.2l0.7,0.3v12.8c0,0-1.1-0.4-1.6,0.6
		c-0.4,1-0.6,2.4-0.6,2.4l-0.6,1.8l-0.7,1.3l-0.3,10.8l-0.5-0.5l-0.2-0.6l-0.2-0.3l-0.1-0.6h-0.4l-0.1,0.8l-0.5,0.4l-0.7-0.3
		l-0.2-1.1h-0.4c0,0-0.3,0.4-0.3,0.7s0,1.7,0,1.7l-0.4,0.3l-0.3,0.3v1.2l-0.5,1.4l-0.2,0.5l-0.3,1.1v2.1h68.8L1201.9,137.7z"/>
	<polygon class="st2" points="1141.6,126.3 1140.3,127.8 1140.3,136.4 1141.2,136.4 1141.7,136.1 	"/>
	<path class="st2" d="M269.1,144.4l-1.5-0.6l-0.8-0.6l-0.7-0.1l-1.1,0.4c0,0,0.3,0.6-0.3,0.4s-1.7-1.3-1.7-1.3h-0.8l-1.1-0.1
		l0.6-8.3l1-0.1l-0.2-1l-1.2-1.9l-0.3,1.2l0.1,1.4l-0.4,0.4l-0.4,8.6l0.2,0.9l-0.5,0.4l-0.8-0.1l-0.2-0.6V134l1.1-0.4l-0.3-1.2
		l-0.7-1.1l-0.6,0.1v11.8l-0.6,0.1l-0.5-0.6l-0.4-0.5l-0.5-0.5l-0.5-0.3l-0.6-0.1c0,0-0.1,0.2-0.5,0.3c-0.4,0.2-3.4,1.3-3.4,1.3
		l0.1,2.9l18.5,0.2L269.1,144.4z"/>
	<g>
		<path class="st3" d="M531.5,101.7l-2.9,0.2c0,0,1.2-1.5,1.2-2.1s-1-2.2-1-2.2l-1-0.9l-6.8-0.1c0,0,0.3-1.5,0-2.1s-1-1.6-1-1.6
			l-0.3-3.4c0,0-3.4-2.8-4.3-3.1c-0.9-0.3-1.9-0.3-1.9-0.3l-3.1-2.5l0.4-5.8l-1.3-1l-1-1.2v-1.2l0.9-0.9l-0.8-0.8v-9.8l0.6-1.7
			l-0.8-0.9v-3.5h-0.9v16.1l-0.4,0.8l0.6,1v1.2l-0.7,0.3l-0.4,0.9l-0.8,1l0.2,6.1l-2.8,2.9l-2,0.2c0,0-3,2.1-3.3,2.8
			c-0.3,0.7-0.5,1.8-0.5,2.5c0,0.6,0.2,1.1,0.2,1.4s-1,1.4-1.1,1.8s-0.1,1.8-0.3,1.9l-2,1l-4.4,0.3l-1.3,2l-0.1,2.8h2v0.7h-3.5
			L457,131.4v-6.2h-4.1v-4.3l2.5-1.2l-0.1-1.3l-2.4-0.1v-0.7l-2-0.1l-0.7-0.7l-0.1-0.8l0.4-0.5l-0.8-0.7l0.1-1.8
			c0,0-0.9-1.9-1.5-2.5c-0.7-0.6-1.2-1-1.2-1v-3.1H446v3.2c0,0-1.8,1.1-1.9,1.8c-0.1,0.7-0.5,1.5-0.5,1.5l-0.7,0.1l0.1,1.6v0.7
			l-0.8,0.2l1.1,0.7l-0.3,1.3l-1.5,0.7l-0.5,0.4l-0.8,0.4l-0.7,0.7l-1.6,0.1l1.3,1.6l1.3,0.2v25.8h139.8l-0.7-10.7L531.5,101.7z"/>
		<path class="st3" d="M181.6,115.8l0.9-1.7l-0.2-4.5l0.4-1.1l-0.8-0.9l-0.4-0.8c0,0,0.6-1.8,0.5-2.1c-0.1-0.4-4-2.1-4.8-2.4
			s-2.8-0.8-2.8-0.8v-2.7l-0.9-2.7l-2-0.4v-2.8h-1v2.9h-1.9V98l-0.9,0.4c0,0-0.6,0.4-0.5,0.8s0.2,1.5,0.2,1.5v1.1l-1.9,0.6
			c0,0-5.9,1-6.7,1.7s-2,1.1-1.8,1.8c0.2,0.7,1,1.2,1,1.2l-0.4,1.2l-1,0.7l0.6,1.9l0.1,2.5l0.5,0.3v27.9l-8.4,4.1l4.7,0.7l31.2,0.2
			v-4.2l-3.2-1.3L181.6,115.8z"/>
		<polygon class="st3" points="1033.7,141.5 1033.7,140.8 1033.1,140.4 1032.9,139.4 1032.5,139.8 1031.2,140.5 1029,141.2 
			1029,137.2 1023.5,137.2 1023.5,138 1023.9,138.4 1024.3,138.7 1024.4,141.2 1023.1,141.3 1023.1,147 1034.3,146.5 1034.5,145.2 
			1034.4,142.6 		"/>
		<path class="st3" d="M1217.9,110.6c0,0-2.8-1.5-5.2-1.8c-2.4-0.3-3.5-0.3-3.5-0.3l-0.8,0.7l-0.4,28.9l11.5,1.5l0.3-27.1l-1.8-0.7
			L1217.9,110.6z"/>
		<path class="st3" d="M1102.6,143.6l-1-0.3v-0.5l0.1-0.8c0,0,0.3-0.2,0.4-0.5c0.1-0.2,0-1,0-1h-0.4l-0.5,0.2l-0.6,0.4l-0.2,0.5
			l-0.2,1.6l-0.1,0.3l-0.7-0.3l-0.1-1.3l0.1-0.5c0,0,0.3-0.1,0.3-0.4c0.1-0.3,0.1-0.5,0.1-0.5l-0.2-0.3l-0.2-0.7l-0.2-0.3l-0.5-0.1
			l-0.8,0.1l-0.4,0.3l-0.3,0.3l-0.1,0.5l0.3,0.4l0.3,0.4l0.2,0.4l0.1,0.7v0.3l-0.5,0.1l-0.3-0.1l-0.4-0.5l-0.2-0.6l-0.5-0.3
			l-0.2-0.4l-0.2-0.2V140l-0.4-0.5c0,0-0.2-0.2-0.1-0.4c0.2-0.2,0.6-0.5,0.6-0.5s0.1-0.2-0.1-0.4s-0.5-0.5-0.5-0.5l-0.3-0.3
			l-0.4,0.1l-0.7,0.4l-0.3,0.4v0.8l-0.4,0.7l0.7,0.4l0.3,0.4l-0.2,0.7l-0.3,0.3l-0.5,0.9l-0.7-0.9l-0.4-1l-0.4-0.4l-0.2-0.4l0.2-0.2
			l-0.6-0.1l-1.3-0.2c0,0-0.2-0.5,0-1c0.2-0.4,0.4-1.1,0.4-1.1l0.3-0.6l-0.5-0.4l-0.2-0.4h-0.5l-0.4,0.5h-0.8l-0.2,0.8l0.5,1.2
			l0.4,1l-1,0.4c0,0-1,0.3-1,0.5s-0.3,0.9-0.3,0.9l-0.7,0.1l-0.1-1.3l-0.2-0.8l-0.7-0.4l-0.8-0.6v-0.9l-1.1-0.9l-0.7-0.1l-0.1-2.2
			l0.8-0.3c0,0-0.1-0.4-0.2-0.7c-0.2-0.2-1-0.8-1-0.8l-0.4,0.1l-0.8,0.4l-0.4,0.2l-0.3,0.7l0.5,0.6c0,0,0.3,0.6,0.3,0.8s0,1.4,0,1.4
			s-1,0.5-1.3,0.5h-0.8c0,0,0.2,0.7,0,0.9s-0.7,0.6-0.7,0.6s-0.2,0.4-0.2,0.7c0,0.2-0.2,1.6-0.2,1.6l0.7,0.2h1.5h1v5h2.1l0.1-4.5
			c0,0,0.5,0.2,0.8,0.2c0.2,0,1.4,0.5,1.4,0.5l0.4,0.5l-0.1,1.4l-0.1,1.7h18.8l-0.6-1.6L1102.6,143.6z"/>
		<polygon class="st3" points="1245.1,116.8 1243.3,116.8 1241,115 1235.7,115.1 1232.9,113.7 1231.5,114 1231.8,147 1245.6,146.1 
					"/>
		<polygon class="st3" points="1103.9,145.8 1103.9,145.8 1103.9,145.7 1103.9,145.7 		"/>
		<path class="st3" d="M737.6,115l-5.7-42.5l-3.1-2.4l0.1-1.6l-1.1-0.2l-0.1-1.6l-2.1-1.9L725,64l0.1-1.1l0.3-1.7v-0.9l-0.5-0.9
			l-0.4-0.6l1.9-1.2l0.1-1.2l1.4-0.7l0.3-1.7l0.9-0.7l0.4-0.9l-0.6-1l-0.7-0.2l-1.7,1.2l-0.9,0.4l-1-0.1l-1.7-1.2l-1.3,1.2l-0.8,0.5
			v1.2l0.3,0.9l-0.6,0.4h-0.9l0.5,1.1l1,1.1l0.7,0.9l-0.4,0.9l-0.4,0.8l1.6,2.3l-2.9,7.2c0,0-2.3,0.6-2.7,1.3
			c-0.5,0.7-0.6,1.1-0.6,1.1l0.3,2.1l0.6,0.7l0.4,1l-0.5,0.8l-0.6,0.6l-0.1,0.9v1.1l-0.6,1l0.4,1.5l0.4,0.6l0.7,0.9l-0.6,9.8
			l-1.4,1.5l-0.1,9.6c0,0,0.8,1.4,0.6,2.3c-0.2,1-1.1,1.7-1.1,1.7l-0.9,1.2l0.1,1.5v1l-0.1,2l0.4,1c0,0,1.5,1,1.5,1.6
			s-5.2,5.2-5.2,5.2l-0.2,5.7l-10.9,14.9l-0.2,6.2l4.3-1.4l13-20.4l-7,21.4l8.6-0.6l6-23.2l11.2,0.3l20,17.7l2.6-4.9l-17.7-18
			L737.6,115z M720.7,92.8h-1.1v-9.2l0.5-0.7h0.6V92.8z M725.4,92.6l-1,0.2l-0.6-0.4l0.1-9.1l0.9-0.5l0.6,0.4V92.6z M730.7,99.8v0.8
			l-1.8-0.1v-0.7L730.7,99.8L730.7,99.8z M729.1,99.1l0.1-0.9h1.3V99L729.1,99.1z M730.5,97h-1l-1.2-0.5v-0.6l0,0l0,0l0,0l2.3,0.1
			L730.5,97z M728.4,94.9l0.1-0.7h1.9V95L728.4,94.9z M728.1,84.7h0.7l0.1,1.3l1.7,2.1l-0.1,4.6l-2.4,0.1V84.7L728.1,84.7z
			 M730.6,101.8l-0.1,0.6l-2.3,0.6l-0.1-1.1C728.4,101.9,730.6,101.8,730.6,101.8z M731,107.3h-2.6l0.2-1l2.7-0.3L731,107.3z
			 M731.1,104.5L730,105l-2.1,0.1l0.3-1l3.2-0.9L731.1,104.5z"/>
		<polygon class="st3" points="1071.2,82.2 1069.9,79.8 1065.3,77.7 1063.2,77.1 1062.3,75.9 1061,75.3 1060.6,72.8 1059.9,72.8 
			1059.8,73.8 1059.8,75.2 1058.6,75.8 1057.4,76.4 1057.1,77.7 1056.7,79.6 1055.3,80.9 1055.3,75 1053.1,76.6 1054.3,77.6 
			1054.3,81.6 1053.6,82.9 1052.4,84.4 1052.4,86.3 1052.4,107.9 1051.2,109.1 1051.2,142.6 1050.2,142.6 1050.2,145.9 
			1072.8,145.7 1072.8,108.7 1071.2,107.8 		"/>
		<path class="st3" d="M875.7,133.5c0,0,0.7-0.2,0.7-1c0-0.7-1.1-1.1-1.1-1.1s0.5-0.9,0.5-1.3s0.1-3.6,0.1-3.6s-0.8-0.6-0.8-1.3
			c0-0.7,0.3-2,0.3-2l-1.2-1.4l-1.8-1.7l-0.3-1l0.6-0.5v-0.8l-1.1-0.7l-0.7-0.5v-2.9H870v3.1c0,0-1.4,1.4-1.3,2.1s0.7,0.9,0.7,0.9
			l-0.1,0.9l-2.3,2.9h-2.4v19.6l24.7,1.1v-7.6l-13.7-1.7L875.7,133.5z"/>
	</g>
	<g>
		<polygon class="st4" points="88.7,135.7 88.7,137.8 89.4,138.2 		"/>
		<polygon class="st4" points="89.8,138.5 89.4,138.2 89.7,139.5 		"/>
		<path class="st4" d="M780,110.6c-0.2-0.1-0.6-0.3-1-0.5l0.8,0.4C779.8,110.5,779.9,110.6,780,110.6z"/>
		<path class="st4" d="M764.7,111.9l4.8,4.7v7.4l8.3,0.2l6.3,5.6l5.7-5.9h7.8l-0.1-7.2l4.9-5l0,0l-4.8-4.7v-7.5H789l-5.6-5.4
			l-5.1,5.4h-8.8c-0.1,0.1-0.1,0.1-0.2,0.2l0.1,7.4L764.7,111.9z M788.9,122.4l-3.1-6.5v-0.5l4,6L788.9,122.4z M790.5,120.5
			l-4.4-5.4l5.6,4.3L790.5,120.5z M792.4,118.8l-3.6-3.1c0,0-1.2-0.8-1.7-1.3s0-0.7,0-0.7l6.7,3.6L792.4,118.8z M795,116.2l-7.3-3.1
			v-1h7.3V116.2z M795,111.4h-7.3v-0.8l7.3-3.4V111.4z M793.8,107.1l-6.7,3.4v-0.8l5.4-4.8L793.8,107.1z M791.7,105l-5.6,4.3
			l4.6-5.9L791.7,105z M789.8,102.7l-4,5.7l3-7L789.8,102.7z M784.5,101.4L784.5,101.4h3.3l-2.9,7h-0.4L784.5,101.4L784.5,101.4z
			 M784.4,115.4h0.4l2.9,7h-3.3L784.4,115.4L784.4,115.4z M771.6,115.6v-3.5h8.7c0,0,0.1,0.7-1.6,1.5l-6,2.9
			C772.7,116.5,771.5,117.4,771.6,115.6z M774.2,118.5c-1.1-0.6-1.1-1.4-1.1-1.4l0.6-0.4l6.1-3c0,0,1.7-0.3,0,1.1l-4.6,3.7
			C775.2,118.5,775.3,119.1,774.2,118.5z M775.9,119.5l5.2-5.1l0.4,0.7l-4.7,5.4L775.9,119.5z M777.5,121.5l4.2-6.1h0.4l-3.2,7
			L777.5,121.5z M783.4,122.4h-3.6l3-7h0.7L783.4,122.4z M783,101.4l0.4,6.4l-0.5,0.6l-3.1-7H783z M779,101.4l3.1,7h-0.5l-4.1-6
			L779,101.4z M775.9,103.9c0,0,0.5-1,0.9-0.4l4.3,5.2c0,0,0.1,0.9-0.7,0s-4-3.7-4-3.7S775,104.7,775.9,103.9z M771.6,108.1
			c0.1-1.2,1.3-0.8,1.3-0.8s3.9,1.8,6,2.8l-5-2.9c0,0-1.8-0.5,0-1.8c0,0,1-0.8,1.4,0l5,3.9c0,0,0.5,1.4-0.3,1.3
			c0.1,0.1,0.2,0.1,0.2,0.1c0.4,0.3,0,0.7,0,0.7h-8.6C771.6,111.4,771.5,109.2,771.6,108.1z"/>
		<path class="st4" d="M1236.7,145.1l0.2-0.9c0.4-1.2,0-3.2,0-3.2l-3.3-0.5v-1.3c0-0.7-6.1-2.5-6.1-2.5v-0.5l1.6,0.2v-1.1l-1.3-0.6
			h-0.9v1.9l-2.4-0.4c-36.3-5.5-41.7-4.4-41.7-4.4l-1.2,0.2l-0.1-0.4l-1.5-0.1l0.1-2.1l2.5,0.5l0.2-1.6l-2.3-0.9h-0.7v4l-0.3,0.3
			l-0.5,0.2l-0.5-0.6l-0.4,0.1l-0.7,0.3v0.7l0.8,0.4l0.3,0.6l-0.3,0.4l-0.3,0.7l-0.9,0.1l-0.2,0.8l-5.7,0.6v-3.6h1.3
			c1.8-1-0.3-1.5-0.3-1.5c-0.5-0.2-5.5,0.1-5.5,0.1c-21.8,3.7-26.2,6.9-26.2,6.9v0.9l-0.3,0.2c-4,2.9-6.2,5.8-6.2,5.8l-62.5-0.1
			l-1.5-17.2l5.7-4v-4.1l-5.7,0.1v1.5l-0.3,0.5l-1.8,0.2c-2.6,2.9-12,4.3-12,4.3c-11.8,2-19-5.5-19-5.5l-0.2-1h-4.9l-0.5,3.8
			c0,0.7,6,4.5,6,4.5l-1.8,16.7H1023l-4.4-4.3v-0.9l0.4-0.1v-0.4l-3.5-0.1l-3.3-3.3V135l0.4-0.1v-0.6l-4.3,0.1v-0.3h-3.2l-0.2-4.6
			l0.8-1.2v-0.6l-4.3,0.1l0.1-0.8h-0.7l-0.1-5.8h0.6v-8.7h-0.6v-2.9h0.6l0.1-8.3h-0.8v-2.8h0.8l-0.1-8.3h-0.7v-2.5l0.5-0.1l0.2-8.4
			h-0.8l0.1-2.3l0.8-0.1l-0.2-8.5h-0.6l0.1-4.6h0.9v-1h0.9l0.1-3.9h0.3v-1h-0.7l-0.1-1.3l0.3-0.1v-1h-0.8v1l-1,0.1v-4l-1.5-2.3v-9.9
			l-1.1-2.1l-0.1-10.3l-0.9-1.4l0.1-9.5c0.8-0.2,1.1-1,1.1-1c0.3-2.2-1.8-2.2-1.8-2.2h-0.7l-0.4,0.1l-0.3-0.6l-0.5,1l-0.6,0.1
			l0.4,0.4l0.3,0.9c-0.1,1.3,1.1,1.2,1.1,1.2v9.7l-0.7,1.3v10.4l-1.1,1.6V51l-1.7,2v4.2H991l-0.1-0.7l-0.4,0.1l0.1,1.8l-0.4,0.2
			l0.3,4.8h1v0.7l1,0.2V69h-0.7l-0.2,8.3l0.9,0.2v2.4h-0.7l-0.1,8.4l0.8-0.1v2.4l-0.7,0.1l-0.2,8.5h1v2.5h-0.9v8.7l0.9-0.1v2.7
			l-0.8,0.1l0.1,8.5l0.7-0.1v5.7l-0.7,0.1v1h-4.4v0.5l0.9,0.7v4.7l-3.2,0.1v0.7l-4.6,0.1v0.5l0.7,0.1v0.6l-3.4,3.1h-3.6l0.1,0.5
			l0.5,0.2l0.1,1.1l-1.5,1.3l0.2-12.1l1.2-1.5l-1.1-2.2v-2.3l0.7-0.4l0.7-0.1l0.2-0.6l-0.4-0.4l0.3-0.5c3-2.3,2.7-4.1,2.7-4.1
			c-1.7-3.4-4.6,2.7-4.6,2.7l-0.4,1.3l-0.6-0.1l0.1-0.7l1.8-3.2c0.4-0.4,1.5-1.6,1.5-1.6c-0.5-1.9-1.8,0.8-1.8,0.8l-2.1,3.5
			l-0.5,1.1H971l0.1-1.5l2.3-4c1-1.6-0.8-0.1-0.8-0.1l-2.6,3.9l-0.3,1.7l-0.7,0.1v-1c0.2-0.3,2.7-5,2.7-5c0.7-1.3-0.5-0.7-0.5-0.7
			l-2.8,4l-0.4,2.7l-0.7,0.1l0.2-2.7l2.1-3.6c1.7-1.6-0.7-1.4-0.7-1.4l-2.9,4.6l-0.1,2.7H965l-0.1-2.2l0.4-0.5
			c0-0.3,2.1-4.7,2.1-4.7c0.4-0.6-1.7-0.6-1.7-0.6l-1.5,4.1l-0.2,1.3l-1.2,2.4c-0.4,0.4-0.7-0.4-0.7-0.4l0.5-3.2l1.6-4.1
			c1.7-1.8-1.1-1.4-1.1-1.4c-0.7,0-2.7,5.5-2.7,5.5l-0.4,3.2h-0.7l0.1-2.6l2.1-6.1l-2.4-0.1l-1.9,4.4l-0.1,3.7c0,0-0.4,0.3-0.9,0.1
			c-0.5-0.2,0.3-4.1,0.2-4.6s1.3-2.6,1.3-2.6l0.7-0.7V112l-1-0.2l-0.6-0.6l-1.5,0.8l-1.3,7.1c-0.2,1.5-1.3,1.6-1.3,1.6
			c-0.6-1.3,1.8-8.7,1.8-8.7c-1.6-2.4-3.3,0.1-3.3,0.1s-1.1,7.3-1,8s-1,0.3-1,0.3l1-8.8l-0.8-0.3l-0.4-0.8h-0.5v0.4l-0.9,0.1v-1.4
			l-0.4-0.2c0,0-0.7-1-1-1s-0.7,0.4-0.7,0.4l-0.4,0.3l-0.4,0.1l-0.5-1.1h-0.6l-0.4,0.8l-0.9-0.1c0,0,0.5-0.1,0-0.5s-1.8,1-1.8,1H940
			l-0.4-1l0.1-2.3l0.4-0.2c0.4-0.1,0.6-1.5,0.6-1.5l0.2-1.5c-0.5-0.5-0.1-1.4-0.1-1.4v-8l0.7-0.1v-8.5l-1.5-0.1v-1.3h-0.7v-4.5
			l-0.7-0.1v6.1h-0.9l-0.1-0.9h-0.8l0.1,7.8l0.7,0.1l-0.3,1.1l-0.1,10.3c0.1,2,1.5,2.7,1.5,2.7v1.3l-0.4,0.2v1.1v0.7h-0.5v-0.4
			l-0.4-0.4l-0.4-0.8l-1-0.2l-0.4,0.3l-0.5,0.5h-0.5l-0.5-0.4h-0.7v0.8h-0.7v-0.5l-0.9,0.1v0.7l-0.7,0.6l-0.4,1.7l-0.6,0.2l0.4,1.3
			l0.1,0.7l0.5,0.2v6.3l-0.7,0.1l-0.7-5.8l-0.4-2.6l-0.7-0.3l-0.6-0.6h-0.4l-0.4,0.4l-0.4,0.2c-0.5,0.1,0.4,8.8,0.4,8.8h-0.7
			l-0.5-3.1l-1-5l-0.7-0.1l-0.5-0.4c-3.8-0.8,0,6,0,6v2.7l-1,0.1v-2.7l-1.3-3.7l-1.3-1.8c-2.9-1-0.6,2.2-0.6,2.2
			c0.4,0.4,1,4.1,1,4.1v1.7l-0.8,0.1v-2.5l-1.5-4.5c-4.1-3.2-2.3,0.9-2.3,0.9c0.5,0.4,1.6,4.7,1.6,4.7v1.8l-0.7,0.1
			c-0.7-4.7-2.5-7.7-2.5-7.7c-2.7-1.1-1.5,1.2-1.5,1.2c0.5,0.2,2,5.7,2,5.7v1.3l-1-0.1v-2.4c0.1-0.8-2.4-5.1-2.4-5.1
			c-2.7-1.5-0.9,1-0.9,1c0.3,0.4,2.4,6.8,2.4,6.8l-0.6,0.4c-0.7-0.2-2.4-5.8-2.4-5.8l-0.6-1.8l-0.9-0.1l-0.4-0.5c-2.4,0,1,3.2,1,3.2
			c0.5,0.5,1.6,5,1.6,5c0.7,0.9,0,1,0,1c-0.5,0.1-3.5-6.9-3.5-6.9l-1.1-0.6c-0.4-0.5-0.8,0.2-0.8,0.2l-0.7,0.2l-0.3-0.4l-0.6,0.1
			l-0.1,0.7H903v-0.4h-0.4l-0.2,0.7c-2.8,2.2-0.7,3.9-0.4,4s2.7,4.4,2.7,4.4v1.6l0.9,0.2l-0.3,0.5c0,0,0.3-0.5-0.7,0.7
			c-1,1.2,0,2,0,2l-0.1,2.4l0.9-0.1c0.3-0.7,0.7,0.1,0.7,0.1l-0.6,5.9l0.6,0.3v1l-0.4,0.1v5.5h-10.9l-1-1.4l-1.8-0.2l-0.4-0.5
			l-1.9-0.2l-0.4-0.3c-1-2.3-1.8,0.2-1.8,0.2l-3.8,0.1c-8.1-2.9-23.6-16.3-23.6-16.3l-4.4-0.2l-1.8-1.6H853l0.2-8.4l1.7-0.2l-1.8-3
			h-0.7l-0.1,2.5l0.1,0.1h-0.1l-0.3,10.6h-0.9v-0.5h-0.4l0.4-10l1.2-0.1v-0.1l-1.6-3h-1v12.5l-2.1-2.4l-21.1,0.5v2.7l-5.9,19.4
			l-19.2-17c6.7-6.9,6-17.3,6-17.3C805.6,91.2,788,88.9,788,88.9v-0.7l-1.9-0.6c-1.6-1.2-1.8-4.3-1.8-4.3v-2.2l-0.4-0.1l-0.2-0.6
			l0.5-0.1v-1.1l-0.5,0.1v-4.1v-0.7v-1.6l-1,0.1v0.7l0.4,0.3v0.6l-0.5,0.2l0.1,0.5l0.4,0.1l-0.4,4.1l-0.4,0.1v0.8h0.4v0.7l-0.4,0.2
			v2c-0.3,0.1-0.9,3.5-0.9,3.5c0,1-2.9,1.3-2.9,1.3v0.7c-13.4,1.6-17.9,15.3-17.9,15.3c-4.6,17,4.9,24.3,4.9,24.3l-7.5,7.3h-1v-3.5
			l-1,0.1v1.5l-0.6,0.8v1.3l-1,1.1l-1.1-0.1v-0.8l-0.7-0.1v-2.5h-0.4v1.8l-0.4,1.3l-1.2,1h-0.7V134l-0.7,0.2v0.7l-0.5,0.6v1.6v0.7
			l-0.6,0.7h-1l-0.5-0.3v-3l-0.4,0.1v1.7l-1,0.5v1.6l-1.1-0.2v-1.6V136h-0.7l-0.1,1.3l-0.7,0.1l-0.1,1.8l-2.2,0.1l0.1,1.2l1.1,0.1
			l0.2,1.2l2.3,1v0.8l-0.5,0.2v1.4h-5.2v-0.7l-0.7,0.1v-2.4l-1,0.1v1.6l-1.4,0.1v1.2H731v-1.3l-0.9,0.1v1.2h-1.6v-1.7l-0.6,0.1v0.8
			l-1.6,0.2v0.7h-22.7v-10l-1-0.1v-1h-0.8v-0.9H701v-0.8l-1-0.1v-0.9h-1.1v-1.1h-1.1v-0.7h-0.9v-1h-1.2v-0.9l-0.6-0.1v-0.9H694v-0.9
			h-1v-1h-0.9v-0.8l-0.8-0.1v-0.7l-1-0.1v-0.7h-1.9l-2.7-2.4v-0.8H674v-1l-1.6-0.1v-1.1l-0.9-0.1v-1l-1.3-0.1l-2.5-3.3l-2.7-0.1
			l-0.1-9.7l6.6-6.9l-7.1-7.2v-9.4h-9.9l-2.4-2.5l-0.3-22.1c0.2-3.5,3-10.5,3-10.5l1.6-1.3l0.2-2.4l0.5-0.1v-0.7l-0.8-0.1v-1h-1.2
			v-0.4l-1-0.2v-0.7h-1.3c-0.4-0.3-3.2-2.6-3.2-2.6l0.1-1.7c1.3-1-0.7-1.6-0.7-1.6v-1.2c0.7-0.7,0-2.1,0-2.1l-0.5-9.2
			c1.1-1-0.1-1.7-0.1-1.7l0.1-4.6c1.1-0.8-0.4-1.6-0.4-1.6V8.3h-1.4V11c-0.9,0.4-0.6,1.4-0.6,1.4l0.4,0.4v4.5H646l-0.1,1l0.5,0.6
			l-0.2,9.5l-0.4,0.1v1.4l0.5,0.6v1c-1.7,0.3-1.1,1.1-1.1,1.1l0.4,0.9v1.1l-3.3,2.5h-1.6l-0.1,0.6h-0.3l-0.3,0.6h-0.9l-0.2,1.2
			l-0.6,0.2v0.5l0.3,0.5c-0.2,3.3,1.7,3.2,1.7,3.2c3.1,5.6,3,11.1,3,11.1v21.3l-2.3,2.6h-10.2v9.5l-7.1,7.1l6.5,7.1v9.5l-2.6-0.1
			l-2.7,3.4l-1,0.1v1.1l-1.4,0.1v1.4L621,119h-11v0.8l-2.7,2.3l-2.3,0.2v0.8h-1v0.8l-0.8,0.2v0.8h-0.7v0.7l-1.2,0.3v0.8l-1,0.1v0.9
			l-0.8,0.1v0.8l-0.9,0.2v0.9l-1.3,0.2v0.6l-0.8,0.1v0.7l-1.2,0.1v1.2l-1,0.1v0.7l-0.9,0.1v0.9l-0.8,0.2v0.9l-20.1,0.2v-2.3l2.7-0.1
			v-1c-0.6-0.5-15.2-1.8-15.2-1.8c-1.3,2.6-3.1,2-3.1,2l-1.8-1.2v-5l-1.7-0.1l-0.4-2.9c0.8,0,0-1.1,0-1.1v-5l-0.8,0.1v5
			c-0.8,0.6,0,1,0,1v3.1h-2.1v2.9c-22.1-1.9-50.2,3-50.2,3v0.7h2.9v2.2l-8-0.1v0.9h1.9v0.6h-1v0.7h1v1.3h-1.5v1.9l-7.6-0.1v-0.5
			l0.9-0.1v-0.5h-0.9v-0.5h0.9v-0.5h-1.2l0.1-1.5l1.1-0.1v-0.4l-12.6-0.8v-0.8l-1.3-0.1v0.8l-6.2-0.2c-0.8-0.4-1.5,0.2-1.5,0.2
			l-0.3,0.1l-23.8-1.4l-0.1-3.2c0,0-1.8-2.3-3.4-2.9s-2.6-0.6-2.6-0.6v-8.3h-1.5v1.3l0.5,0.3l0.1,5l-0.3,0.1l-0.2,1l-0.7,0.3l-1,0.3
			l-0.3,0.6l-0.2,0.4l-1.9,0.1c0,0,0.1-1.3-0.1-1.4s-3.1-2.3-3.6-2.6c-0.5-0.3-3.4-2.1-4.3-2.3c-0.9-0.2-3.8-0.6-3.8-0.6l-0.2-9.3
			l-1,0.1l-0.1,9c0,0-4.5,1-5.8,1.6s-4.2,2.9-4.2,2.9l-1,0.8l-0.9,0.5l-0.1,1.5l-2.5-0.1l-0.8-0.5L401,127l-0.1-8.6h-0.7l-0.1,8.6
			c0,0-5.3,2.4-5.6,2.6c-0.2,0.2-1,1.6-1,1.6l1,3.2l-0.9,0.3l0.1-1.1l-0.8,0.1v0.7h-0.6l-0.8-1l-0.7-0.1v1.2h-0.5
			c-1.2-1.6-2.1-0.2-2.1-0.2h-1c-11.6-13.4-25.5-11.6-25.5-11.6l-0.1-9.1l1.2-0.9v-2.5H362l-0.1-0.7l-1.5-0.2l0.1-0.8l0.7-0.4v-0.6
			l0.4-0.3l0.2-1.6v-2h-0.5l-0.3-0.7l0.8-0.2v-1.6h-0.6l0.3-1.7c3.9-4.9-2.6-5.8-2.6-5.8l0.1-29.5c4.7-1.6,0.4-2.9,0.4-2.9l-0.1-0.9
			l2.2-2.6v-4.9h-1.6l0.1-1l1-0.3v-1.6h-1.1l-1-0.6l0.1-0.9c2.1,0.5,2-1.3,2-1.3c0.3-2.8-2.4-2.4-2.4-2.4l-0.2-0.4l-0.1-12.4
			l1.2-0.2v-0.6l-0.8-0.1l0.2-0.7c0.4-0.2,0.7-1.5,0.7-1.5c1-0.1,0.4-1.4,0.4-1.4c1.3-0.2-0.6-1.8-0.6-1.8c0.2-1.3-1.8-1.5-1.8-1.5
			c-0.8-2.4-2.2,0-2.2,0c-1.4-0.2-1.8,1.4-1.8,1.4c-2.4,1.5,0.4,1.6-0.4,2.4s1.2,1.2,1,1.5s0.5,1.7,0.5,1.7h-0.9V32h0.9v12.3
			c-5.1,3.1-0.4,4-0.4,4v0.8h-0.7l-0.3,0.6h-1.1l0.1,1.9h0.7l0.1,1.1h-1.6l0.1,4.7c3.1,3.5,1.9,3.4,1.9,3.4
			c-3.4,2.8,0.7,3.1,0.7,3.1v29.4c-7.1,1.3-2.4,6-2.4,6l0.3,1l-0.7,0.7l0.4,1.3l-0.4,1v1.3l0.1,0.9l0.3,1.2l0.3,0.7l0.7,1l-1.6,0.7
			l-0.9,0.3l0.1,2.4l0.7,1.2v8.6c-11.8,0.7-18,7.1-18,7.1l-4.4-0.9v1.2l-5.2-0.6l-1.8-3.4l-9.3-1.5l-1.2-1.5l0.6-1v-2.7h-0.9
			l0.2-1.2l3.8-0.1l-0.1-1.9h2.2v-7.2l3-5.8l-2.7-5.6v-8.6l-3.8-0.3l-1.2-2.2v-3.2l-1.5-0.1v-1h-10.6h-14.8h-1.9h-7.4l-0.7,2.7
			l-1.5,2.7h-1v0.9H270l0.3,8.6l-2.2,4.1l2.5,6l-0.1,8.6l3.2,0.7l2.5,6.6l-3.1,0.3v2.1l-10.3,1.3v1h-1.9v1.3l-7.2,0.4v-1.1l-5.6-4.3
			v-1.8h-0.7l-0.7-1.6v-1l0.7-0.3V117c-1-2.4-2.6,3-2.6,3v-0.7v-0.7l-1.4-1.6c0-0.7-0.9-0.4-0.9-0.4c-0.1-0.6-1.3-2.1-1.3-2.1
			l0.6-1.3c0.6-1.6,0.9-0.2,0.9-0.2l0.3,1.8l1,0.9c1.6,0.4,0.3-1,0-1.8c-0.3-0.7,0-1.3,0-1.3l-1.6-1.6l-0.9-0.6
			c-0.9-0.6-4.1-0.6-4.7-0.6c-0.6,0-1.9-1.9-1.9-1.9v-1.6c0-0.6-1.3-1.5-1.3-1.5c-1.2-0.9-1.9,0.1-1.9,0.7s-0.7,1.3-0.7,1.3
			c-0.4,1.5,0.7,1.2,0.7,1.2c1.6-2.5,1.9-0.7,1.9-0.7l-1,0.9c0,0,0.2,1.6-0.4,1.9c-0.6,0.3,0,1.3,0,1.3l-2.2,1.3
			c0,0-0.3,1.9-0.3,3.1s0.7,0.9,0.7,0.9s0-1.9,0.1-2.7c0.1-0.7,1.9-1.5,2.4-1c0.4,0.4,0.7,2.7,0.7,3.2c0,0.6-2.4,2.4-2.4,2.4H229
			c0,0,0.1-0.9,0-1.8s-1-2.1-1.8-3c-0.7-0.9-0.9-1-0.9-1l-0.1,1.5c0,0-1.2,1.3-1.2,1.9s2.2-0.4,2.2-0.4v0.6c-1.8,1,0,2.8,0,2.8
			l-0.7,2.1l-0.6-1.3c-1.6,0-3.3,0.6-3.3,0.6h-1.2l-0.7-0.4v-1.3l-0.7-1.6l-1.3-1.5l-0.9,0.7l-1.2-0.1l0.1,1.8l1.6,0.3
			c0,0,0.1,2.2,0,3c-0.1,0.7-1.2,0.7-1.2,0.7l-0.6-0.7c-0.7-1-1.2-1.2-1.2-1.2c-4-0.1-2.7,2.1-2.7,2.1l0.1,1.5
			c2.2,1.2,1-1.6,1.6-1.6s0.9,1.3,0.7,1.9c-0.1,0.6-1.5,1-1.5,1l-1.2,2.2c-0.9,3.2,1,0.7,1,0.7c0.1-0.6,0.3-1,0.6-1.4
			c0.8-1,1.9-1.4,1.9-1.4s0.4,2.8-0.1,2.5c-0.6-0.3-0.7,0.6-0.7,0.6l-0.3,0.7c-1.5,0.9,0.7,2.2,0.7,2.2l3,0.4l-0.1,2.1l1.5,0.3v2.1
			l-1,0.4v-0.4v-0.7l-6.6-0.1h-0.8v1.5H209c0,0-0.5,0.1-0.6-0.4s-1.3-0.2-1.3-0.2v1.2l-2.8,0.2l0.4,0.3l0.6,0.4v0.6l-0.4,0.9
			l-0.5,0.5l0.5,0.8v0.7l-0.5-0.3l-0.7-0.2v-1l-0.5-0.1l-0.9,0.4v0.4v0.8v1.7l-2.3-0.1v2.2h-45.6l-61.5-0.5l-15.3-0.4v-3.1h-0.4v0.8
			l-0.4,0.5v1.6l-0.7,0.7h-5.3v-1c0-0.8-2.5,1-2.5,1h-0.6l-0.8-1v-2h-0.8l-1,0.9l1,0.4v0.7l-0.6,1h-1.1l-1-1.3l0.1-1.6
			c-0.4-0.9-1.1,1.2-1.1,1.2h-1.2l-0.3-1h-0.8l0.1-3H61h0.6l0.6,0.8l0.9-0.1l0.3-2.4l0.7-0.2v-2.1c-0.4,0-0.9-1.5-0.9-1.5
			c-0.4-0.9-2.3,0.9-2.3,0.9c-0.9,0.2-0.4,2.4-0.4,2.4l0.8,0.5l-0.5,0.7l-1.5-0.6v-1.1h-0.4l-0.4,1.1c0,0-0.6,0.7-0.8,0.7
			s-0.9,0.6-0.9-0.1s0.7-0.9,0.7-0.9c0.4-0.6,0.1-2.1-0.4-2.3s-1.5-1.2-1.5-1.2c-0.8-0.2-2,1.5-2,1.5v1.5c-0.5,0-1.9,1.2-1.9,1.2
			c-0.9,0.2,0.6,2.5,0.6,2.5v3.1l-0.7,0.5l-0.5-0.2v-1l-0.6-0.4v-2.2l0.6-0.2v-0.6v-0.6v-0.5c-1.9-1.8-2.5,0.9-2.5,0.9H48l-0.8-0.4
			c-1.8-0.3-1.9,1-1.9,1.5c0.1,0,0,0.2,0,0.2s0-0.1,0-0.2c-0.1,0-0.2,0-0.5,0.2c-0.8,0.4-0.6,1.5-0.6,1.5v1.1c0,0.4-1.2,1.6-1.2,1.6
			h-2.5c0,0,0-0.8,0.3-1s1.6-0.7,1.9-1s0.7-0.7,0-1.1s-1.2,0.9-1.4,0.6s-1.9,0-1.9,0v1.8l-0.7-0.1v-1.7l-0.7,0.8v1.2l-0.5,0.5H0v5.4
			h1285V145L1236.7,145.1z M61.2,137.1h-0.7l0.4-0.7l0.3-0.3c0,0,1.3-0.9,1.7-0.5l0.5,0.5v1.1l-0.7,0.4l-0.1,1.5h-0.4l-0.3-0.8v-0.5
			l-0.6-0.1L61.2,137.1z M50,139c0.2,0,0.4,0.2,0.4,0.3c0,0.2-0.2,0.3-0.4,0.3s-0.4-0.1-0.4-0.3S49.8,139,50,139z M49.5,140.6v1.9
			h-1.3C47.2,140.5,49.5,140.6,49.5,140.6z M47.1,141.2c0,0,0.3-0.5,0.5,0v2h-0.5V141.2z M45.9,142c0.2,0,0.4,0.2,0.4,0.4
			s-0.2,0.4-0.4,0.4s-0.4-0.2-0.4-0.4S45.7,142,45.9,142z M47.1,145.2l-1.7-1v-0.7h1.7l0.2,0.4h0.2l0.3-0.6h1.9v0.5l0.8,0.8l0.4,0.6
			H47.1L47.1,145.2z M54,140.2l-0.1,0.6h-0.3h-0.3l-0.1-0.9v-0.5c0,0-0.7-0.4-0.3-1.1l0.7-0.3l0.7-0.7v-1.2l0.8-0.5h0.7l0.7,0.5
			l0.3,0.6v0.8h-0.7h-0.3h-0.4l-0.3,0.5l-0.4,0.3v0.4v0.4l-0.6,0.3l-0.2,0.3L54,140.2z M56.2,139.3c0,0.1-0.1,0.2-0.3,0.2
			s-0.3-0.1-0.3-0.2s0.1-0.2,0.3-0.2C56,139,56.2,139.1,56.2,139.3z M58,144.2h-3.7v-3.6c0,0-0.1-1.4,0.9-0.9l0.3,0.4h0.7l0.4-0.5
			c0,0,1.2-0.3,1.4,0.5L58,144.2L58,144.2z M218.4,124.4v0.8l-0.6,0.4l-0.6,0.3v-0.7C217,124.2,218.4,124.4,218.4,124.4z
			 M219.2,127.3l-0.5,0.3l-0.3,0.3h-1.1c-0.3,0,0-0.7,0-0.7l1.2-1.5c0.5-1.1,1.1,0,1.1,0L219.2,127.3z M228.9,124.4v1.8l-0.5,0.8
			h-2.2l-0.4-1l-1.3-0.3l-0.6,0.5l-0.5,0.8v0.6l-0.6,0.6H220c-0.6-0.2,0-1.1,0-1.1c1.3-0.5,1.4,0.8,1.4,0.8v-0.2h0.6
			c0,0,0-0.5-0.1-1c0-0.2,0-0.2,0-0.2c-0.1,0-0.1,0.1-0.5-0.3c0,0,0,0.1-0.2-0.1C221,126,221,126,221,126s0,0.1-0.4-0.1
			c0,0,0.1,0,0-0.3c-0.1-0.2-0.1-0.2-0.1-0.2s0.1,0,0.2-0.4c0,0,0,0.1,0.1-0.1c0.1-0.4,0.2,0.1,0.2,0.1s0.6,0.2,0.9,0.1
			c0.1,0,0.2-0.1,0.2-0.1c0.2,0,0.3-0.1,0.3-0.1s0-0.3,0.5-0.9c0.1,0,0,0.2,0.2,0.3c0.3,0.1,0.4,0,0.4,0s0.3,0.4,0.3,0
			c0-0.3,0-0.2,0.1-1.1V123c0,0,0,0,0-0.1c0-0.3,0.6,0,0.6,0v0.5c0,0.3,0.1,0.3,0.3,0.6c0.1,0.1,0.1,0.1,0.2,0.3
			c0.2,0.3,0.7,0.3,0.7,0.3l0.3,0.1c0.3,0.1,0.2,0.3,0,0.5s0.7,0.3,0.7,0c0-0.2-0.1-0.8-0.1-1.3v-1.1c0.7-0.4,0.8,0.4,0.8,0.7v0.9
			c0,0.4-0.1,0.6-0.1,1.2s0,0.4,0.3,0.6c0.4,0.2,0.7-0.2,0.7-0.3s0.1-0.6,0.1-0.9v-1.1c0-0.7-0.3-0.7-0.3-1.1s0-0.4,0.1-0.6
			s0.2,0.3,0.2,0.3v0.4c0,0.2,0,0.2,0.2,0.1c0.2,0,0.4-0.3,0.4-0.3v-0.2c0-0.2,0.3-0.6,0.3-0.6h0.3c0.3-0.1,0.3-0.1,0.8,0
			s0.3-0.1,1.1,0s0.6,0.1,0.7,0.4c0.1,0.3,0.1,0.3,0,0.7s-0.9,0.5-0.9,0.5h-1.7L228.9,124.4z M231,127.3c0,0-1.7-0.1,0-1.5
			c0,0,1.7-0.2,1.7,0.7C232.7,126.5,233.1,127.5,231,127.3z M235.3,125.2c-0.4,0.8-0.2,1-0.7,1s-0.8,0.1-0.8-0.3v-1.2v-1.5
			c0,0,0.9-0.2,1.1,0.5C235.2,124.4,235.7,124.5,235.3,125.2z M235.9,126.9L235.9,126.9L235.9,126.9c-0.1,0-0.5,0-0.4-0.3
			c0,0,0.2-1,0.9-0.4C236.4,126.2,236.6,126.9,235.9,126.9z M236.6,116.7c-0.3,0.1-0.2,0-0.2,0s0,0-0.2,0.2c-0.4,0.3-0.9,0.4-1,0.4
			c0,0.2,0,0,0,0l0,0l0,0l0,0c0-0.1,0-0.2,0-0.5c-0.1-1,0.1-2.6,0-3c-0.2-0.4-0.2-1.2-0.2-1.2s1-0.4,1,0s0.1,0.5,0.5,0.4
			s0.1,0.1,0.8,0s0.6,0.1,1.1,0s1.2-0.4,1.2,0.4s0.6,1.3-0.4,1.7l-0.5,0.2l-0.4,0.2c-0.8,0.3-0.3,0.3-0.9,0.6
			C236.7,116.4,237.1,116.6,236.6,116.7z M241.6,128c-0.5-0.1-0.6-0.1-0.8-0.3l-0.2-0.2l-0.7-0.1h-2.6c0,0,0.5-1.2,0.7-1.4
			c0.2-0.3,0.2-0.8,0.6-0.8c0.4,0,0.5-0.5,1,0.1c0.5,0.5,0.5,0.8,0.9,0.9c0.3,0.1,0.4,0.1,0.6,0.4c0.2,0.3,0.5,0.5,0.5,0.8
			C241.6,127.6,242.1,128.1,241.6,128z M243.1,118.5c0.1,0.3,0.1,0.3-0.6,0.3c-0.7-0.1-0.5,0.3-1,0c-0.5-0.2-0.1-0.2-0.7-0.2
			c-0.6-0.1-0.6,0-0.9-0.1c-0.1,0-0.2,0-0.7-0.1c-0.8,0-1,0.1-1,0.1c-0.1-0.5-0.4-0.5,0-0.7c0.3-0.3,0.5-0.2,0.7-0.4
			c0.2-0.2,0.6-0.2,0.7-0.4c0.1-0.2,0.3,0,0.4-0.5l-0.1-0.7c0,0,0.2-2.1,2.1,0c0,0,0.1,0.7,0.5,0.9c0.5,0.2,0.4,0.1,0.6,0.7
			C243.3,117.9,243,118.2,243.1,118.5z M311.6,87.6l3.6,0.9v0.3h-6.8l-2.1-2.3V86h4.4L311.6,87.6z M281.4,108.2l-0.1,1.7h-3.1
			l-0.4-5.4l-3.4-3.7l3.5-4.5v-5.4l0.7,0.6l0.3,0.5l2.4,0.6V99c0,0-0.1,6.1,0.9,6.9C282.2,105.9,281.9,107.8,281.4,108.2z
			 M283.3,86.4c-0.3,0.5-0.8,0.9-1,1.1c-0.2,0.1,0.1,0.2-0.4,0s-0.5-0.3-0.9-0.7l-0.4-0.4c0,0-0.9-0.7,1.3-0.3
			C281.9,86.1,283.6,85.9,283.3,86.4z M286.2,90.4l-0.6,0.5l-0.5-1.6h-0.7c-1.6,0.3,1.8-2.9,1.8-2.9l13.3-0.3c0.8,0,0,0.7,0,0.7
			l-0.4,0.9l-1-0.3C289,86.4,286.2,90.4,286.2,90.4z M302,117.5l-2.9-2.5l-5.4,0.5h-0.1V115l4.4-0.8c1.4,0,4.4-1.6,4.4-1.6
			L302,117.5z M302.2,83.3h-14c0,0-1.3-0.5-1.7-0.4s-2.6,0-3.5,0c-0.8,0-0.3-0.9-0.3-0.9l4.2-0.4l12.5-0.2l1.7,0.2l0.5,0.2h0.9h1.2
			h2.7c0,0,0.5,0.3,0.8,0.4c0.3,0,2.4,0.8-0.4,0.7S302.2,83.3,302.2,83.3z M309.1,109.9c-0.3,0-2.8-0.4-2.8-0.4s4-6.8,2-12.3
			c0,0-1-3.5-2-4.6h5.6v5.6l3.3,4.4l-3.6,4.6l0.2,4.1h-0.5l-1.1,1.3C310.2,112.6,309.5,109.9,309.1,109.9z M581.7,138.2h-1.2v-1
			l0.6-0.4l-0.6-0.6h1.2V138.2z M746.6,145.2h-1.1v-2.7c0,0,0.5-1,1.1-0.5V145.2z M749.7,143l-1.5,1.5v-2.1c0,0,0.8-1.6,1.5-0.6V143
			z M778.1,130.5c-17-6.5-13.4-22.5-13.4-22.5c1.3-3.5,2.8-6.3,4.6-8.3v-0.2h0.2c0.1-0.2,0.3-0.3,0.4-0.5c8.1-8.7,19.6-4.8,19.6-4.8
			c11.4,3.8,12.7,14.6,12.9,17.5l0,0l0,0c0,0.4,0,0.7,0,0.7C799.7,135.7,778.1,130.5,778.1,130.5z M934,119.4l0.1-3.2h0.9l0.1,3.4
			L934,119.4z M938.3,93v-1.6h-0.1l0.5-0.6h1v0.6l0.5,0.6l0.7,1h-1.3H938.3z M938.9,119.3l-0.9,0.3v-3.9l1-0.2L938.9,119.3z
			 M942.9,120.3l-1.2,0.1l0.3-4.7l1-0.1L942.9,120.3z M947.2,115.8c0,0.7-0.3,4-0.3,4l-0.7,1.1l-0.4-0.7l-0.2-3.6v-1.2l0.7-2.4
			l0.6-0.9c0,0,0.4,1.1,0.4,1.4C947.3,113.8,947.2,115.1,947.2,115.8z M1040.8,145h-2.5l0.9-15.9l2.4,0.9L1040.8,145z M1046.8,145
			h-3.8l0.8-14.5l3.4,0.4L1046.8,145z M1052.7,145h-4.1l0.6-14.1h3.5V145z M1056.8,145h-2.6v-14.1h2.6V145z M1058.3,144.9v-14l5-1
			l0.7,15H1058.3z M1066.4,145l-1-15l2-0.9l1.2,15.9H1066.4z M1191.9,137.7c0,0-4.4-1.8-5.3-1.6s-2.2-0.1-2.5-0.1s-0.7-0.7-0.7-0.7
			v-0.4l-0.8-0.1v-0.7l-0.5-1.2h0.6h0.8c0,0,4.6,0.3,5.1,0.8s3.3,2.5,3.3,2.5V137.7z"/>
	</g>
	<path class="st3" d="M474.4,145h346.7c5.6-3.4,6.4-6.4,6.4-6.4c-15.4,7.8-50.8-2.8-50.8-2.8c-41.2-14.4-103.4-18.5-103.4-18.5
		c-3.3-0.3-12.6-4-12.6-4c-1-9.2-12.4-12.5-12.8-12.6l0,0l0,0c-0.5,0.1-11.9,3.5-12.8,12.6c0,0-9.4,3.8-12.6,4
		c0,0-62.2,4-103.4,18.5c0,0-35.4,10.6-50.8,2.8C468,138.6,468.8,141.6,474.4,145"/>
	<path class="st4" d="M518.6,144.5c0.2-0.1,0.4-0.1,0.6-0.2c0,0,54.6-13.4,101.1-14.1c0,0,9.3-12.5,21.1-2.5c0,0,10.4,7.9,4.7,2.3
		c-2.3-2.3-7.4-9.5-7.4-9.5c-15.2-7.8-18.4,3.6-18.4,3.6c-46.5,0.7-101.1,14.1-101.1,14.1c-9.8,2.9-18.2,4.9-25.4,6.3H518.6
		L518.6,144.5z"/>
	<path class="st5" d="M453.3,150.5C453.2,150.5,453.2,150.4,453.3,150.5L453.3,150.5L453.3,150.5z"/>
	<path class="st5" d="M842.4,150.5L842.4,150.5C842.4,150.4,842.4,150.5,842.4,150.5L842.4,150.5z"/>
	<path class="st4" d="M654.2,127.7c11.8-10,21.1,2.5,21.1,2.5c46.5,0.7,101.1,14.1,101.1,14.1c0.2,0.1,0.4,0.1,0.6,0.2h24.8
		c-7.2-1.4-15.6-3.4-25.4-6.3c0,0-54.6-13.4-101.1-14.1c0,0-3.2-11.4-18.4-3.6c0,0-5.1,7.2-7.4,9.5
		C643.8,135.5,654.2,127.7,654.2,127.7"/>
	<path class="st4" d="M180.8,132.1c0-0.9,0.3-3.2,0.3-3.3c0-0.2-0.9-0.1-1.4-0.3s-0.7-0.1-0.9,0.1c-0.1,0.2-0.3,1.3-0.3,1.3
		l-1.1,0.2l-0.8,2.9c0,0-1.6-1-1.6-1.1l-0.1-0.5l-0.3,0.1l0.3-2c0,0,0.1-0.4,0.9,0c0.8,0.4,0.9,0.1,1,0.1c0.2,0,0.4-1.6,0.4-1.6
		s0.1-0.2-0.3-0.1c-0.4,0.1-0.9,0.2-1.3-0.2c-0.4-0.4-0.6,0.4-0.7,1.2c-0.1,0.8-0.7,2.6-0.7,2.6s-1.9-0.5-2.1-0.6s-1.2,0.2-1.4,0.8
		c-0.3,0.5,0.3-3.4,0.3-3.4s-1.8-0.1-2.2-0.1s-2.6,0.8-2.6,0.8l-0.2,0.4c0,0-0.8-0.2-0.9-0.3s-0.7,0-1.1,0s0-1.1,0-1.1
		s1.1,0.1,1.5,0.1s0.3-1.6,0.3-1.6s0,0-0.6-0.1s-1-0.4-1.1-0.1s-0.5,2.6-0.5,2.6s-1-0.2-1.1-0.3c0,0-1.3,0-1.7-0.2
		c0,0-1.8,0-2.3-0.3c0,0-0.4-0.1-0.9,0c0,0-0.7-0.3-1-0.3l0.1-0.7c0,0,0.8,0.1,1,0.2c0.2,0,0,0.1,0,0.1s0.3,0,0.3-0.4
		s0.1-1.4,0.1-1.4s0-0.1-0.3-0.1s-1.2-0.4-1.3,0s-0.2,2.2-0.2,2.2H156c0,0-1.2-0.5-1.7-0.3c0,0-0.6-0.2-1.2-0.1c0,0-0.6-0.6-1.9-0.4
		c0,0-1-0.2-1.3-0.2l-0.1-1.2h-3.1l-0.3,0.2c0,0-2.1-0.7-3.6-0.7h-1.5c0,0-1.3-0.5-2.2-0.6v-0.2c0,0-1.6-0.2-2.5,0
		c0,0-1.5-0.9-4.3-0.8c0,0-0.8-0.8-2.7-0.9v-0.3c0,0,0.4-0.1,0.4-0.2s0-1.6,0-1.6s-0.7-0.1-0.9-0.3v1.8l0.3,0.3v0.3
		c0,0-1.3-0.1-1.9,0.2c0,0-1.2-1.3-4.1-1.3h-2.8c0,0-0.3-0.8-2.8-0.9c0,0-1.4,0-2.8,0.7c0,0-0.3-0.3-0.5-0.4l0.2-0.1V119
		c0,0-0.6,0-0.8-0.2v1.6c0,0-2-1.3-5.3,0.2c0,0-2.9-1.5-5.2-0.3v-1.5c0,0-0.6,0.3-0.8,0.2v1.6h0.3c0,0-0.3,0.1-0.7,0.4
		c0,0-3.4-1.7-5.7,0.3h-2.7c0,0-1.9-0.3-4.2,1.2c0,0-1.3-0.2-1.9-0.1v-0.3l0.3-0.3v-1.7c0,0-0.5,0.3-0.9,0.3v1.7l0.4,0.1v0.3
		c0,0-1.2-0.2-2.8,0.9c0,0-2.2-0.4-4.2,0.9c0,0-1.9-0.1-2.5,0l-0.1-0.5c0,0,0.2-0.1,0.2-0.4v-1.6c0,0-0.7,0.5-1.1,0.3v1.6
		c0,0,0.1,0.2,0.4,0.1l0.1-0.1h0.2v0.7c0,0-1.3,0.2-2.1,0.6c0,0-3.2-0.2-5.2,0.8l-0.3-0.2h-3.2v1.1c0,0-0.5-0.1-1.2,0.2
		c0,0-1-0.1-2.1,0.4c0,0-0.8-0.1-1.3,0.2c0,0-0.9-0.3-1.7,0.3c0,0-0.2,0-0.4,0V127l-0.2-1.7c0,0-0.9,0.4-1.4,0.2l-0.1,0.2l0.2,1.5
		c0,0,0,0.2,0.4,0.1L60,127v0.8c0,0-0.9,0.2-1.1,0.2c0,0-1.2-0.5-2.2-2.2c-0.7,0.3-1.4,0.5-2.1,0.6c-0.4,0-0.9,0-1.4,0
		c-1.1,0.2-2.3,0.4-3.5,0.4c-0.8,0.3-1.8,0.4-2.8,0.1c-0.2,0-0.4,0.1-0.6,0.1c-0.1,0.4-0.3,0.7-0.4,1.1h-0.3v0.5c0,0-0.4,1.2-2,2.5
		c0,0-1,0.3-1.2,0.3l-0.8-3.5c0,0-0.1-0.3-0.5-0.2c-0.5,0.2-1,0.3-1.4,0.2c-0.3,0-0.2-0.1-0.1,0.3c0.1,0.4,0.3,1.4,0.3,1.4
		s0.6-0.3,0.9-0.1c0.3,0.2,0.9-0.5,1-0.1s0.5,2,0.5,2h-0.4v0.2c0,0-1.3,1.1-2,1.3c-0.7,0.3-0.6,0.1-0.6,0.1l-0.4-1l-0.9-3.7
		c0,0-0.2-0.3-0.7-0.2s-1.5,0-1.6,0.2c-0.1,0.1,0.1,0.2,0.2,0.7s0.2,1,0.2,1s0.5-0.3,1-0.1s0.9-0.7,1.2,0s0.3,1.9,0.3,1.9h-0.2
		l0.2,1.2c0,0-0.7,0.6-0.7,0.8s0,0.4,0,0.4l1.3,1.3l0.2,0.7l-1,0.1c0,0-0.5,0.2-0.6,0.2c-0.1,0.1-0.2-0.1-0.2-0.1l-0.6-3l-1.3-1.2
		l-0.8-3.7c0,0-0.4-0.4-0.6-0.3c-0.3,0.1-0.9,0.4-1.4,0.2s-0.3,0.1-0.3,0.4c0,0.2,0.4,1.3,0.4,1.3s0.4-0.3,1-0.1
		c0.6,0.3,0.7-0.7,1.1,0l0.4,1.8h-0.1l-0.2,0.2l3.4,14.4h144.1l0.2-0.4c0,0-2.2-5.1-2.4-10.9c0,0,0.4-1.6,0.6-2.7
		C180.9,132.5,180.8,132.7,180.8,132.1z M38.5,138.7l0.9,0.1l0.1,0.4h-1.1l-0.5-1.9v-0.1l0.2,0.5c0,0,1.5-0.2,1.6-0.2
		c0.2,0,0.2,0.6,0.2,0.6h-1.5L38.5,138.7z M40.8,138.1l-0.2-0.7l2.5-0.3l0.2,1H40.8z M44,137l2.2-0.3c0.1,0.5-0.1,1.4-0.1,1.4h-1.8
		L44,137z M46.4,146h-1.6c3-8.2,1.4-16.9,1.4-16.9h1.5C49.2,139.2,46.4,146,46.4,146z M51.4,133.1l1.6-0.2l0.3,1.7l-1.6,0.2
		L51.4,133.1z M52.2,137.3L52,136l1.5-0.2l0.3,1.5H52.2z M53.8,132.8l6.4-0.6l0.2,1.7l-3,0.4l-3.3,0.3L53.8,132.8z M54.4,136.4
		l-0.1-0.7l6-0.8l0.3,1.5H54.4z M60.9,132.1l6.2-0.8v1.8l-6,0.8L60.9,132.1z M61.3,134.8l5.9-0.8v1.5h-5.8L61.3,134.8z M69.2,146H67
		c0,0,1-9,0.4-19.5h2.2C69.6,126.5,70.4,131.9,69.2,146z M71.9,130.5l5.8-1.1l0.1,1.9l-5.6,1L71.9,130.5z M77.9,134.6h-5.2l-0.1-1.3
		l5.4-0.9L77.9,134.6z M87.2,133.9h-8.7v-0.1l-0.1-1.3l8.8-1.5L87.2,133.9L87.2,133.9z M87.3,129.5l-8.9,1.7l-0.1-1.8
		c4.3-0.8,9-1.7,9-1.7V129.5z M93.5,132.8h-5.7v-2l5.7-0.9V132.8z M93.4,128.6l-5.6,0.8l-0.1-1.8l5.8-0.8L93.4,128.6z M96.3,146.1
		H94l0.1-23.6h2.2L96.3,146.1L96.3,146.1z M96.8,126.4l5.7-0.5v1.8c-1.2,0.1-5.7,0.4-5.7,0.4V126.4z M102.5,131.9h-5.6l0.1-2.2
		l5.7-0.6L102.5,131.9z M114.4,126l5.7,0.5v1.7c0,0-4.4-0.3-5.7-0.4V126z M113.8,136.7H103V130h10.9L113.8,136.7z M113.9,127.7
		h-10.8V126H103c5.6-0.3,10.9-0.1,10.9-0.1V127.7z M114.5,132l-0.1-2.8l5.7,0.6l0.1,2.2H114.5L114.5,132z M122.8,146.1h-2.3
		l0.1-23.6h2.2L122.8,146.1L122.8,146.1z M129.2,127.7l-0.1,1.8l-5.6-0.8l-0.1-1.8L129.2,127.7z M129.2,132.9h-5.7V130l5.8,0.9
		L129.2,132.9z M138.4,133.9h-8.8V131l8.8,1.6V133.9z M138.5,131.3l-8.9-1.7v-1.8c0,0,4.7,0.8,9,1.7L138.5,131.3z M144.4,134.7h-5.2
		v-2.1l5.4,0.9L144.4,134.7z M144.7,132.4l-5.6-1l0.1-1.8l5.8,1.1L144.7,132.4z M147.8,146.1c0,0-1.3-13.2-0.5-19.6h2.1
		c0,0-0.7,8.7,0.5,19.5L147.8,146.1z M155.6,135.6h-5.8v-1.4l5.9,0.8L155.6,135.6z M155.8,133.9l-6-0.8v-1.8l6.2,0.8L155.8,133.9z
		 M162.6,136.5h-6.2l0.3-1.5l6,0.8L162.6,136.5z M162.9,134.6l-3.3-0.3l-3-0.4l0.2-1.7l6.4,0.6L162.9,134.6z M164.8,137.4h-1.5
		l0.3-1.5l1.5,0.2L164.8,137.4z M165.2,134.9l-1.6-0.2l0.3-1.7l1.6,0.2L165.2,134.9z M169,139.2c0,0-0.4-4.5,0-10h1.7
		c0-0.1-1,6.4-0.2,10.2L169,139.2z M172.7,138.2h-1.8c0,0-0.2-0.9-0.1-1.4l2.2,0.3L172.7,138.2z M176.2,138.2h-2.5l0.2-1l2.5,0.3
		L176.2,138.2z M179,137.4l-0.4,1.9h-1.1l0.1-0.4l0.9-0.1l0.1-0.6h-1.5c0,0,0-0.6,0.1-0.6s1.6,0.2,1.6,0.2L179,137.4L179,137.4z
		 M139.3,124.5v-0.3c0,0,0.4-0.1,0.4-0.2s0-0.1,0-1.6c0,0-0.7-0.1-0.9-0.3v1.8l0.3,0.3v0.3"/>
	<path class="st4" d="M61.6,115.8c-0.5-1.5-1-3-1.5-4.6c-0.2-0.6-0.3-1.2-0.4-1.7c-1.3,0.6-2.7,1.4-4.1,2.1
		c-0.1-0.1-0.3-0.2-0.4-0.3l1.4-4.9c-0.1-0.1-0.3-0.2-0.4-0.3c-1,0.7-2.8-0.6-3.4,1.3c1.9,2,1.8,4.8,0.1,6.8
		c-1.6,1.8-3.3,3.5-4.1,5.8c-0.7,2.2-1.8,4.3-2.4,6.5c-0.1,0.3-0.2,0.7-0.3,1c0.3,0.2,0.6,0.4,0.9,0.6c0.7-0.5,1.7-0.9,2.9-0.9
		c0.9,0,1.7,0.2,2.4,0.5c0.7-0.4,1.6-0.7,2.6-0.7s1.9,0.3,2.6,0.7c0.2-0.2,0.5-0.4,0.7-0.6c-0.5-0.3-0.9-0.7-1.1-1.3
		c-0.3-0.7-0.3-1.6-0.4-2.3s0-1.5-1-1.9c-0.3-0.1-0.4-0.8-0.5-1.2c0-0.3,0.3-0.6,0.2-0.8c-0.5-1.7,0.3-3.2,0.8-4.7
		c0.1-0.5,0.7-0.8,0.9-1c0.9,0.7,1.7,1.3,2.4,1.8c0.3,0.2,0.6,0.5,0.9,0.7c0.3,0.3,0.6,0.5,0.9,0.8
		C61.4,116.6,61.7,116.1,61.6,115.8z"/>
</g>
</svg>
